<svg id="Capa_1" data-name="Capa 1" xmlns="http://www.w3.org/2000/svg" viewBox="0 0 694.79 225.93"><defs><style>.cls-1{fill:#fff;}.cls-2{fill:none;}</style></defs><title>LogoWEB</title><path class="cls-1" d="M328,432.54q0-28.64,0-57.28c0-4.15-.06-8.31-.07-12.46,0-1.61.33-2,1.93-2,1,0,1.92,0,2.88,0,5.36,0,10.72,0,16.08,0,1.93,0,2.39-.29,2.52-1.82q.6-7.38,1-14.77c.07-1.18-.58-1.77-1.75-1.78s-2.07.14-3.1.14H285.39c-.72,0-1.44,0-2.16,0-1.6.12-2,.57-1.83,2.1q.74,6.89,1.53,13.77c.23,2,1,2.52,3.05,2.49q9.22-.13,18.47-.13c1.78,0,2.2.47,2.28,2.32s0,3.51.1,5.27c.27,5.41.64,10.81.86,16.23.24,5.65.33,11.31.5,17,.15,5.42.36,10.84.47,16.27.1,5.27.17,10.54.16,15.81q0,24.35-.15,48.68c0,.32,0,.64,0,1-.26,6.94-.67,13.87-.74,20.8-.07,7.27-.28,14.51-1,21.74-.21,2.07-.28,2.1-2.31,2.1-6,0-12,0-18,0-2,0-2.53.54-2.73,2.48-.38,3.64-.77,7.28-1.21,10.91-.25,2,0,2.4,2,2.43,8.07.1,16.14.27,24.22.26,16.55,0,33.1-.18,49.65-.23a5.53,5.53,0,0,0,3.53-1.18c3.37-2.56,6.79-5.05,10.12-7.65,8.31-6.48,16.57-13,24.88-19.5a3,3,0,0,0,1.16-3.51c-.74-3.41-1.3-6.88-1.73-10.35-.74-6-1.43-12-1.93-18-.7-8.33-1.48-16.67-1.71-25-.23-8.85.12-17.72.28-26.59,0-2.63,0-2.82-2.76-2.83H376c-2.45,0-2.82.35-2.86,2.71-.08,4.31-.2,8.63-.15,12.94.09,8.22.23,16.44.48,24.66q.35,11.58,1,23.16c.23,4.22.68,8.42,1.07,12.62a4.08,4.08,0,0,1-1.48,4c-7.44,5.91-14.81,11.9-22.25,17.8a4.63,4.63,0,0,1-2.62.88c-6.32.08-12.64.06-19,0-2,0-2.31-.28-2.34-2.38,0-2.63,0-5.26,0-7.89,0-7.67.11-15.34.15-23,0-3.75,0-7.51,0-11.26q0-12.93,0-25.86Zm-75.25-62.28c.48,1.8.93,3.16,1.18,4.55.6,3.29,1.09,6.6,1.63,9.9.43,2.59.78,2.89,3.42,2.9,3.75,0,7.51,0,11.27,0,2,0,2.18.21,2.39,2.16.38,3.48.78,7,1.05,10.46.49,6.43.95,12.86,1.34,19.3.29,4.93.63,9.87.61,14.81-.06,12,.43,24-.42,35.94-.42,5.8-.61,11.61-1,17.42-.31,4.68-.73,9.36-1.13,14-.14,1.66-.7,2.14-2.49,2.15-3.84,0-7.68,0-11.52,0-2.49,0-2.72,0-3.2,2.44-.78,3.9-1.5,7.81-2.22,11.73-.23,1.28.15,1.77,1.46,1.92a17.35,17.35,0,0,0,1.91,0q15.72,0,31.44,0c2.16,0,4.31.16,6.47.18,2.88,0,5.76,0,8.64,0,1,0,1.75-.26,1.83-1.41.27-4.2.59-8.41.79-12.63.08-1.77-.46-2.23-2.29-2.26-2.64,0-5.28,0-7.92,0-2.07,0-2.3-.3-2.15-2.43.28-4,.69-7.94.84-11.91.29-7.89.65-15.79.62-23.69,0-14.7.46-29.4-.4-44.09-.26-4.46-.08-8.94-.21-13.41-.1-3.19-.35-6.37-.57-9.55s-.5-6.18-.67-9.28c-.1-1.66.26-2,1.91-2,2.64,0,5.28.06,7.92,0,2.14,0,2.5-.38,2.45-2.56-.11-4.47-.29-8.93-.48-13.39-.07-1.66-.55-2-2.52-2q-23.85,0-47.7,0A9.74,9.74,0,0,0,252.78,370.26Zm85.67-.67h0c-2.16,0-4.32,0-6.48,0-1.88,0-2.15.23-2.17,2,0,4.63,0,9.27,0,13.9,0,1.72.35,2,2.16,2.11,1.36,0,2.73-.1,4.07,0a5.21,5.21,0,0,1,2.62.9c1.87,1.49,3.56,3.19,5.36,4.77a3.08,3.08,0,0,1,1.15,2.73c-.15,2.3-.28,4.61-.32,6.92-.18,11.34-.44,22.67-.46,34,0,12.38.18,24.76.29,37.14q.07,9.83.16,19.65a4.52,4.52,0,0,0,.09,1.43c.55,1.55-.18,2.62-1.26,3.57-1.69,1.46-3.35,3-5.12,4.31a4.8,4.8,0,0,1-2.41.79c-1.43.13-2.88,0-4.32.05-1.63.07-2,.4-2,2q-.06,6.12,0,12.23c0,1.8.29,2.05,2.12,2.07,4.16,0,8.33.07,12.48,0a5.24,5.24,0,0,0,2.81-1c3.25-2.45,6.43-5,9.59-7.56,2.36-1.91,4.65-3.89,7-5.83a3.73,3.73,0,0,0,1.65-3.71,43.61,43.61,0,0,1-.43-5c-.34-7.16-.69-14.32-1-21.49-.14-4-.2-8-.16-12q.18-21.09.48-42.16c.06-4.15.26-8.29.47-12.43.34-6.61.7-13.21,1.13-19.81a4,4,0,0,0-1.47-3.56c-2-1.8-4-3.64-6.05-5.45-3.56-3.19-7.17-6.34-10.71-9.56a3.74,3.74,0,0,0-2.8-1C342.77,369.63,340.61,369.59,338.45,369.59Zm214.06,40.33q0,18.58,0,37.18c0,3,0,3.08,3,3.08,7,0,13.93.07,20.88,0,4.06,0,8.16-.1,12.06-1.46,4.75-1.65,9-4,12.28-8a30.48,30.48,0,0,0,7-19.91q.06-10.43,0-20.86a41.3,41.3,0,0,0-.45-6.19,27.37,27.37,0,0,0-8.25-16.1c-5.51-5.23-12.32-7.49-19.84-7.58-7.92-.09-15.84,0-23.76,0-2.86,0-2.87,0-2.87,2.92Zm145.44.2q0,18.7,0,37.41c0,2.44.18,2.63,2.55,2.64,3.84,0,7.68,0,11.52,0,2.45,0,2.72-.34,2.72-2.8,0-7.68,0-15.35,0-23,0-3.64,0-3.49,3.71-3.69,2.38-.14,3.61.72,4.52,2.86,3.55,8.27,7.26,16.47,10.86,24.72a2.71,2.71,0,0,0,2.69,1.94c4.63,0,9.27,0,13.91,0,1.74,0,2.09-.68,1.36-2.32q-6.3-14.2-12.62-28.39c-1-2.36-1.09-2.35,1-3.92A19.75,19.75,0,0,0,748,402.28a55,55,0,0,0,.46-10.73c-.39-7.38-3.64-13.31-10-17.29-4.79-3-10.18-4.1-15.76-4.17-7.43-.08-14.87,0-22.31,0-2.39,0-2.39,0-2.42,2.4,0,.4,0,.8,0,1.2ZM544.79,449.55c-1.95-7.23-3.76-14-5.6-20.76-1.16-4.3-2.37-8.59-3.56-12.89-1-3.6-2-7.2-3-10.8-.89-3.22-1.8-6.43-2.68-9.65-2.08-7.68-4.14-15.37-6.24-23.05-.52-1.91-1.08-2.32-3-2.32q-7.32,0-14.63,0c-2.18,0-2.39.13-3,2.27q-3.3,11.85-6.55,23.7c-1.74,6.37-3.41,12.76-5.15,19.13-1.44,5.23-3,10.42-4.41,15.64-1.56,5.68-3.06,11.37-4.61,17.05-.47,1.72-.14,2.27,1.57,2.28q6.22,0,12.46,0c2.66,0,2.92-.3,3.57-2.83q1.34-5.2,2.81-10.37c.47-1.64,1.11-2,2.47-2q8,0,16.06,0c1.62,0,2.13.23,2.57,1.78,1.09,3.83,2.13,7.67,3.23,11.5.49,1.68.82,1.94,2.52,2,4.32,0,8.64,0,13,0A9.12,9.12,0,0,0,544.79,449.55ZM662.53,386a11.87,11.87,0,0,1,2.21-.45c6.79,0,13.58.1,20.37.16a7.64,7.64,0,0,0,1,0c1.62-.18,1.93-.47,1.94-2.08q.06-5.64,0-11.27c0-1.87-.37-2.22-2.28-2.23q-19.07,0-38.14,0c-1.85,0-2.35.65-2.17,2.52.1,1,.2,2.06.2,3.09q0,33,0,65.93c0,2.14-.17,4.29-.27,6.44a1.71,1.71,0,0,0,1.73,2.09,13.43,13.43,0,0,0,1.68,0h35.74c.48,0,1,0,1.44,0,1.77-.14,2.07-.42,2.09-2.19,0-3.35,0-6.71,0-10.07,0-3.15-.11-3.28-3.19-3.28H667.08c-.88,0-1.76,0-2.64,0-1.64-.08-2-.45-2-2q0-6.83,0-13.65a1.59,1.59,0,0,1,1.69-1.85c.56,0,1.12,0,1.68,0H686a19.72,19.72,0,0,0,.4-2.59c0-3.35,0-6.71,0-10.06,0-2.45-.28-2.69-2.81-2.69H665.38c-2.85,0-3-.21-2.88-3,.09-3.44,0-6.87,0-10.3Zm113.83.31c1.21-1.33,2.61-.59,3.91-.59H799q.6,0,1.2-.06a1.64,1.64,0,0,0,1.62-1.92c0-3.92,0-7.84,0-11.75,0-1.52-.35-1.79-1.84-1.88-.48,0-1,0-1.44,0H762.75c-3.36,0-3.36,0-3.36,3.46q0,37,0,74.08c0,2.21.25,2.48,2.41,2.57h36.94a10.3,10.3,0,0,0,1.67,0,1.75,1.75,0,0,0,1.58-2c-.05-3.74,0-7.49,0-11.23,0-1.43-.46-2.1-1.85-2.26a17.39,17.39,0,0,0-1.91,0c-6.32,0-12.64,0-19,0-.94,0-1.87-.15-3.09-.25,0-2.25,0-4.31,0-6.37,0-3,0-5.91,0-8.87,0-1.62.37-1.93,2-2,.56,0,1.12,0,1.68,0H797.6c2.37,0,2.57-.22,2.58-2.64,0-3.27,0-6.55,0-9.83,0-2.67-.2-2.87-2.86-2.87-6.08,0-12.16,0-18.23,0h-2.73Zm150.19-17.2a34.84,34.84,0,0,0-10.43.77,22.88,22.88,0,0,0-10.21,5.47c-6.41,6.19-8,14-6.93,22.4.86,6.94,4.87,11.85,10.95,15,2.81,1.47,5.81,2.59,8.73,3.86,2.48,1.09,5.05,2,7.41,3.28,3.17,1.73,4.28,4.69,3.67,8.15a7.66,7.66,0,0,1-5.53,6.3c-4.69,1.51-9.34.9-13.84-.61a80.34,80.34,0,0,1-8.66-4c-1.37-.66-2-.41-2.15,1-.44,4.19-.83,8.38-1.29,12.56a3.34,3.34,0,0,0,2.06,3.84,41.41,41.41,0,0,0,14.22,3.89,39.06,39.06,0,0,0,15.62-1.14c11.7-3.65,16.32-12.47,17.35-23.26.26-2.71-.52-5.33-1.16-8a17,17,0,0,0-7.06-10.45,46.48,46.48,0,0,0-7.15-3.78c-3.87-1.68-7.88-3-11.74-4.73a7,7,0,0,1-4.36-7.49,7.57,7.57,0,0,1,6-6.92c3.62-.91,7.16-.24,10.63.67a52.12,52.12,0,0,1,6.64,2.64c1.67.72,2.37.34,2.5-1.48,0-.56,0-1.12.07-1.68.34-3.48.68-7,1-10.44a2.13,2.13,0,0,0-1.31-2.52A40,40,0,0,0,926.55,369.09Zm-87.43,0a34.83,34.83,0,0,0-10,.72c-8.79,2.15-14.46,7.5-16.82,16.21a29.87,29.87,0,0,0-.68,11.12,18.61,18.61,0,0,0,4.8,10.95c3,3.26,6.75,5.3,10.76,7,3.6,1.5,7.27,2.85,10.82,4.46s4.8,4.47,4.4,8.22a8.17,8.17,0,0,1-5.47,6.64,20.47,20.47,0,0,1-10.16.35,35.31,35.31,0,0,1-12.39-4.89c-1.41-.86-2.06-.49-2.22,1.1-.41,3.95-.8,7.91-1.25,11.86-.33,2.84-.18,3.2,2.38,4.5.78.39,1.59.75,2.4,1.08a45.57,45.57,0,0,0,20.43,2.79,26.47,26.47,0,0,0,14.25-5,21.22,21.22,0,0,0,9-15.7,71.6,71.6,0,0,0,0-8.79c-.23-5.63-2.86-10-7.28-13.39-3.16-2.42-6.86-3.68-10.5-5.11-2.89-1.13-5.8-2.23-8.65-3.46a6.42,6.42,0,0,1-3.55-3.41c-2-4.82.34-10.08,5.67-11a20.86,20.86,0,0,1,5.47-.13,28.41,28.41,0,0,1,11.56,3.57c1.3.74,2.17.22,2.32-1.26.4-4,.77-8.08,1.15-12.12.17-1.88,0-2.17-1.64-2.9A38.29,38.29,0,0,0,839.12,369.08ZM438,409.87v36.21c0,.8,0,1.6,0,2.4a1.44,1.44,0,0,0,1.57,1.67c.56,0,1.12,0,1.68,0h19.68c5.2,0,10.4,0,15.59,0,2.17,0,2.47-.57,2.39-2.75-.13-3.19-.17-6.4,0-9.59.12-2.82-.07-3.2-2.88-3.2H457.2c-2.33,0-2.42-.12-2.45-2.43,0-.48,0-1,0-1.44V374.39c0-.56,0-1.12,0-1.68,0-2.47-.17-2.62-2.56-2.63-2.56,0-5.12,0-7.68,0-1.68,0-3.36,0-5,0-1,0-1.49.44-1.5,1.43,0,.64,0,1.28,0,1.92Zm179.52.24q0,18.57,0,37.14c0,2.5.39,2.92,2.92,2.92,3.68,0,7.35-.09,11-.1,2.93,0,3.16-.2,3.16-3.05q0-36.78,0-73.57a8.53,8.53,0,0,0-.06-1.68,1.85,1.85,0,0,0-2-1.7q-6.59,0-13.19,0a1.66,1.66,0,0,0-1.87,1.7c-.06.63,0,1.28,0,1.92Zm252.8,0V419q0,14.25,0,28.51c0,2.14.24,2.6,1.87,2.64,4.39.09,8.79.08,13.18,0,1.43,0,1.9-.71,1.87-2.19,0-.88-.12-1.76-.12-2.63q0-34.14,0-68.28c0-1.59.13-3.18.12-4.77s-.59-2.17-2.17-2.18c-4.31,0-8.63,0-12.94,0a1.56,1.56,0,0,0-1.8,1.72c0,.64,0,1.27,0,1.91ZM708.73,489.8a25.34,25.34,0,0,0-3.19-1.69,9.6,9.6,0,0,0-12.12,5.7c-1.75,4.78-1.09,9.76-.87,14.67a13,13,0,0,0,.83,3.94c1.78,4.78,8,8.13,13.18,5.27.68-.38,1.3-.88,2.1-1.42,1.05,1.69,2.62,1.94,4.37,1.83,2.38-.14,2.67-.39,2.67-2.87q0-12.21,0-24.44a5.73,5.73,0,0,0-.07-1.66c-.12-.39-.59-1-.87-.95C712.68,488.31,710.23,487.07,708.73,489.8ZM284.43,319c.62,5.18,1.26,10.14,1.82,15.11.32,2.81.56,3.14,3.35,3.11,6.38-.06,12.75-.17,19.13-.26,2.36,0,2.56-.26,2.4-2.7-.28-4.53-.6-9.06-.85-13.59-.13-2.25-.21-2.4-2.54-2.41-5,0-10.08,0-15.12,0-2.06,0-4.12,0-6.18.05A7.87,7.87,0,0,0,284.43,319Zm50.24,18c3.36,0,6.71,0,10.06,0,1.85,0,2.22-.42,2.33-2.23q.46-7.38.92-14.75c.07-1.17-.44-1.75-1.64-1.89a15.38,15.38,0,0,0-1.92,0l-19.62.21c-2.34,0-2.55.2-2.52,2.67.07,4.7.19,9.39.32,14.09,0,1.67.29,1.91,2,1.93C328,337,331.32,337,334.67,337ZM481.51,503h.12c0,1.43-.05,2.87,0,4.3.15,4.12,1.4,7.73,5.31,9.74,3.25,1.67,6.58,2.34,10.3,1,4.34-1.61,7-4.45,7.4-9a87,87,0,0,0,.17-11.42,10,10,0,0,0-2.3-5.91c-2.88-3.5-6.69-4.47-10.92-4.09-5.51.5-9,3.92-9.69,9.44C481.65,499,481.63,501,481.51,503Zm295.32.17c0-1.68,0-3.35,0-5A10.21,10.21,0,0,0,774,491c-2.75-3-6.28-3.72-10-3.39-6.31.54-10,4.9-10.15,10.13-.13,3.82-.08,7.66.07,11.48a8.5,8.5,0,0,0,2.77,5.91c3.67,3.46,7.83,4.35,12.78,2.87a11,11,0,0,0,7.46-10.54C776.76,506.07,776.83,504.63,776.83,503.19Zm-187.2,0h0c0-1.92,0-3.83,0-5.75a9.62,9.62,0,0,0-2.52-6c-2.69-3.17-6.27-4-10.15-3.74-6.27.4-10.43,5-10.36,10.91,0,3.27-.09,6.55,0,9.82a9.6,9.6,0,0,0,4.92,8.5c3.37,1.9,6.86,2.58,10.74,1.13,4.62-1.74,7.31-5.11,7.35-10C589.64,506.35,589.63,504.76,589.63,503.16Zm96.47,2.09a25.49,25.49,0,0,0,.12-9.38,9.5,9.5,0,0,0-5.33-7.2c-2.55-1.21-5.16-1.08-7.92-.75-4.58.54-8.41,6.09-8.19,9.84.21,3.42,0,6.87.06,10.3.06,4.45,2.33,7.5,6.25,9.39,4.52,2.18,9,1.46,13.44-.3.6-.23,1.41-.88,1.45-1.4a6.08,6.08,0,0,0-1.23-4.68,34.61,34.61,0,0,1-4.11,1.47c-4.57,1-8.2-.2-9.28-4.6-.45-1.8,0-2.56,1.92-2.58,3.51,0,7,0,10.55,0C684.6,505.34,685.38,505.28,686.1,505.25Zm-136,.1c0-3,.16-5.5,0-8-.41-5.34-3.57-8.89-8.62-9.61-7.87-1.13-13.25,4.15-13,10.68.14,3.27-.09,6.55.08,9.82a12,12,0,0,0,1.16,4.56c1.57,3.27,4.55,4.77,7.92,5.62,4,1,7.74.05,11.31-1.73.44-.22,1.07-1,1-1.21-.54-1.42-.23-3.17-1.49-4.3a34,34,0,0,1-4.42,1.45c-4.23.78-7.65-.15-8.89-4.25-.69-2.29-.29-3,2-3,2,0,4,0,6,0Zm240-15.53c-.58-1.71-1.84-1.89-3.27-1.75-.64.06-1.28,0-1.92,0-1.38.08-1.81.62-1.81,1.93q0,13,0,26.06c0,1.19.33,1.77,1.59,1.93a17.92,17.92,0,0,0,3.11.06c2-.12,2.22-.48,2-2.54a13.57,13.57,0,0,1-.05-1.43c0-5.2,0-10.39,0-15.58,0-2.59,1.73-4.36,4.46-4.65,1.88-.2,3.87,1.45,4.35,3.7a10.18,10.18,0,0,1,.14,2.14q0,7.2,0,14.38c0,4,.39,4.32,4.41,4,.16,0,.32,0,.48,0,1.45-.23,1.8-.54,1.81-2,0-6.48.3-13-.07-19.42-.38-6.81-6-10.43-11.77-8.57A26.82,26.82,0,0,0,790.15,489.82ZM597.61,494a16.83,16.83,0,0,1,.19,1.71q0,9.1,0,18.22c0,4.22.69,4.8,4.9,4.17,1.49-.22,1.72-.5,1.72-2,0-6.31,0-12.62-.07-18.94,0-3.38.08-3.36,3.32-3.27.32,0,.64,0,1,0a1.35,1.35,0,0,0,1.43-1.33c0-1.4-.08-2.8-.14-4.42-1.51,0-2.7,0-3.89,0-1,0-1.72-.48-1.66-1.59a28.11,28.11,0,0,1,.4-4.51c.56-2.53,2.18-3.45,4.81-3,.37.07.75.08,1.27.14.3-1.4.61-2.69.83-4a1.5,1.5,0,0,0-1.38-1.87c-4.1-.83-9.61.46-11.55,5.43a14.67,14.67,0,0,0-1,5.85c0,1,.28,2.33-.24,3s-1.85.54-2.83.59c-1.24.07-1.55.81-1.36,1.76.26,1.35-1,3.15,1.1,4a4.23,4.23,0,0,0,1.19.06ZM477.16,512.52a3.72,3.72,0,0,0-.77-.07c-3.17.39-4.44-.71-4.44-3.85q0-6.35,0-12.68c0-1.72.27-2,2.1-2.08a14.11,14.11,0,0,0,2.16,0c.49-.1,1.3-.46,1.33-.76a12.12,12.12,0,0,0-.07-4.21c-.35-1.25-1.79-.61-2.76-.73-.32,0-.64,0-1,0-1.46-.12-1.82-.51-1.81-1.93s.1-2.71.1-4.07C472,478,472,478,468,478c-2.32,0-2.61.3-2.65,2.62,0,1.92,0,3.84,0,5.75,0,1-.35,1.61-1.5,1.71-2.78.26-2.77.31-2.81,3,0,.24,0,.48,0,.72,0,1.62.25,1.87,1.94,2l2.26.18c.06.93.14,1.7.14,2.48,0,4.31,0,8.63,0,12.95,0,1.1.19,2.21.3,3.31.53,5.41,7.74,7.19,11,5.29.39-.23,1-.61,1-.93C477.63,515.57,478.19,514,477.16,512.52Zm-21.55-17.59.58-3.42c.29-1.71.13-2.22-1.34-2.8a14.87,14.87,0,0,0-11.2-.17c-3.57,1.43-5.33,4.52-5.22,8.58.09,3.25,2.29,6.06,5.88,7.38,1.49.55,3.06.91,4.57,1.42a3.81,3.81,0,0,1,2.75,4c-.33,1.78-1.71,2.77-3.82,2.93a13.7,13.7,0,0,1-7.14-1.62c-1.83-.89-2.06-.75-2.25,1.36a5.93,5.93,0,0,1-.24,1.65c-.56,1.37,0,2.12,1.23,2.63,4.13,1.77,8.26,2.75,12.73,1,3.77-1.46,5.5-4.25,5.76-8,.25-3.51-.94-6.44-4.37-8-.8-.37-1.6-.71-2.42-1-1.5-.54-3-1-4.51-1.56a2.65,2.65,0,0,1-1.7-2.85,2.84,2.84,0,0,1,1.79-2.59,5.52,5.52,0,0,1,4.19-.4C452.31,493.81,453.72,494.32,455.61,494.93Zm356.27,15.56c-.09.83-.13,1.36-.2,1.89s-.21,1.09-.3,1.64c-.32,2-.22,2.45,1.66,3.14,3.84,1.39,7.68,2.38,11.86.83,4.49-1.68,6-5,6.13-8.72.11-4.13-1.91-6.8-6-8.21-1.28-.44-2.58-.82-3.87-1.24a7.62,7.62,0,0,1-1.34-.48,3,3,0,0,1-1.9-2.8,2.94,2.94,0,0,1,1.92-2.77c2.22-1.14,4.35-.33,6.48.34.72.23,1.42.52,2.4.88.28-1.62.53-2.92.71-4.23a1.61,1.61,0,0,0-1.12-1.87,14.37,14.37,0,0,0-11.58-.3,7.77,7.77,0,0,0-5.09,7.15c-.28,4,1.4,6.57,4.8,8.27a21.35,21.35,0,0,0,2.22.88c1.21.41,2.45.72,3.63,1.21a3.44,3.44,0,0,1,2.42,3.91c-.31,1.71-1.61,2.66-3.64,2.81a12.93,12.93,0,0,1-7.35-1.67A13,13,0,0,0,811.88,510.49Zm-75.45-22.41h-3.35c-2.21-.05-2.53-.39-2.43-2.5,0-1,.08-2.08.09-3.11,0-5,.29-4.44-4.81-4.46h-.24a1.39,1.39,0,0,0-1.53,1.49c-.11,2-.15,3.94-.11,5.91.06,2.48.05,2.51-2.33,2.69-.6,0-1.66.27-1.68.48a29.13,29.13,0,0,0,0,4.67c0,.22.76.5,1.19.56,2.76.39,2.76.37,2.77,3,0,.64,0,1.27,0,1.91q.15,6.81.32,13.63c.13,5.34,7.38,7.68,10.92,5.68a2.29,2.29,0,0,0,1.14-1.35c.12-1.38.38-2.84-.29-4.16a2.67,2.67,0,0,0-.81-.14c-3.18.45-4.69-.76-4.71-3.9,0-4.31,0-8.62,0-12.92,0-1.25.45-1.68,1.74-1.75a21,21,0,0,0,2.87-.09,1.79,1.79,0,0,0,1.19-1.14A45.28,45.28,0,0,0,736.43,488.08ZM641,494.67c.35-1.31.65-2.26.85-3.24a2.21,2.21,0,0,0-1.51-2.81,12.56,12.56,0,0,0-9.77-.18c-3.71,1.5-6.37,4.11-6.56,8.33s-.14,8.59,0,12.88a8.55,8.55,0,0,0,4.18,6.89,12.37,12.37,0,0,0,12.52,1c.87-.39,1.64-.91,1.57-1.9-.11-1.38-.1-2.84-1.08-4.11-.73.3-1.38.61-2,.84-5,1.66-9-.85-8.94-5.88q0-3.6,0-7.2a5.91,5.91,0,0,1,8.32-5.57C639.21,494.05,639.9,494.24,641,494.67Zm-123.85-6.45h-5.75c-.07,1-.2,1.81-.2,2.66q0,12.09,0,24.19c0,2.82.15,3,3,3h1.19c2.27-.08,2.56-.37,2.56-2.71,0-5.19,0-10.38,0-15.57,0-2.87.78-4,3.48-4.87,1.12-.37,2.27-.61,3.68-1,0-1.57,0-3.07,0-4.56a1.3,1.3,0,0,0-1.83-1.28,36.4,36.4,0,0,0-3.71,1.56l-1.52.64Zm136.27-.14h-3.22c-2.56,0-2.69.13-2.69,2.73q0,11.63,0,23.24c0,4.05.13,4.17,4.13,4,2.28-.07,2.58-.36,2.58-2.69,0-5.35,0-10.7,0-16,0-2.35.6-3.26,2.81-4.12a25.62,25.62,0,0,1,3-.91,1.59,1.59,0,0,0,1.32-1.92c0-.61,0-1.24,0-1.86-.07-.81-.23-1.61-.4-2.79a35.31,35.31,0,0,0-3.44,1.07c-1,.45-2,1.07-3.15,1.69ZM685.14,357.2c.46-3.92-3.68-8.27-7.63-8.22A7.91,7.91,0,1,0,677,364.8C680.67,365,685.27,361.71,685.14,357.2ZM650,356.89a7.61,7.61,0,0,0,7.74,7.9c4.14,0,7.92-3.53,7.89-7.37a8.2,8.2,0,0,0-7.85-8.46C654.06,348.9,649.45,352.46,650,356.89ZM741.15,518c1.79,0,3.29.06,4.78,0,1.13-.06,1.6-.71,1.58-1.92-.08-7.89-.1-15.79-.12-23.68,0-4.68-.13-4.79-4.78-4.33l-.24,0a1.1,1.1,0,0,0-1.2,1.19c0,.55,0,1.11,0,1.67V518Zm102.39-3.66c0-2.14-2.1-4.32-4.14-4.15-2.72.22-4.2,1.93-4.15,4.32a4.66,4.66,0,0,0,4.13,4.23A4.42,4.42,0,0,0,843.54,514.37Zm-99.19-32.53a3.83,3.83,0,0,0-.16-7.66,4.1,4.1,0,0,0-3.8,3.91A4.15,4.15,0,0,0,744.35,481.84Z" transform="translate(-252.78 -318.05)"/><path class="cls-1" d="M328,432.54v24.95q0,12.93,0,25.86c0,3.75,0,7.51,0,11.26,0,7.67-.11,15.34-.15,23,0,2.63,0,5.26,0,7.89,0,2.1.3,2.37,2.34,2.38,6.32,0,12.64,0,19,0a4.63,4.63,0,0,0,2.62-.88c7.44-5.9,14.81-11.89,22.25-17.8a4.08,4.08,0,0,0,1.48-4c-.39-4.2-.84-8.4-1.07-12.62q-.61-11.57-1-23.16c-.25-8.22-.39-16.44-.48-24.66-.05-4.31.07-8.63.15-12.94,0-2.36.41-2.7,2.86-2.71h14.4c2.72,0,2.8.2,2.76,2.83-.16,8.87-.51,17.74-.28,26.59.23,8.35,1,16.69,1.71,25,.5,6,1.19,12,1.93,18,.43,3.47,1,6.94,1.73,10.35a3,3,0,0,1-1.16,3.51c-8.31,6.48-16.57,13-24.88,19.5-3.33,2.6-6.75,5.09-10.12,7.65a5.53,5.53,0,0,1-3.53,1.18c-16.55,0-33.1.2-49.65.23-8.08,0-16.15-.16-24.22-.26-2.07,0-2.3-.39-2-2.43.44-3.63.83-7.27,1.21-10.91.2-1.94.7-2.47,2.73-2.48,6,0,12,0,18,0,2,0,2.1,0,2.31-2.1.72-7.23.93-14.47,1-21.74.07-6.93.48-13.86.74-20.8,0-.32,0-.64,0-1q.07-24.33.15-48.68c0-5.27-.06-10.54-.16-15.81-.11-5.43-.32-10.85-.47-16.27-.17-5.65-.26-11.31-.5-17-.22-5.42-.59-10.82-.86-16.23-.09-1.76,0-3.52-.1-5.27s-.5-2.32-2.28-2.32q-9.24,0-18.47.13c-2,0-2.82-.51-3.05-2.49q-.8-6.89-1.53-13.77c-.17-1.53.23-2,1.83-2.1.72-.06,1.44,0,2.16,0h62.16c1,0,2.07-.14,3.1-.14s1.82.6,1.75,1.78q-.45,7.38-1,14.77c-.13,1.53-.59,1.81-2.52,1.82-5.36,0-10.72,0-16.08,0-1,0-1.92,0-2.88,0-1.6.07-1.94.43-1.93,2,0,4.15.07,8.31.07,12.46Q328,403.91,328,432.54Z" transform="translate(-252.78 -318.05)"/><path class="cls-1" d="M252.78,370.26a9.74,9.74,0,0,1,2.29-.63q23.85-.06,47.7,0c2,0,2.45.39,2.52,2,.19,4.46.37,8.92.48,13.39.05,2.18-.31,2.53-2.45,2.56-2.64,0-5.28,0-7.92,0-1.65,0-2,.3-1.91,2,.17,3.1.46,6.19.67,9.28s.47,6.36.57,9.55c.13,4.47-.05,8.95.21,13.41.86,14.69.35,29.39.4,44.09,0,7.9-.33,15.8-.62,23.69-.15,4-.56,7.94-.84,11.91-.15,2.13.08,2.41,2.15,2.43,2.64,0,5.28,0,7.92,0,1.83,0,2.37.49,2.29,2.26-.2,4.22-.52,8.43-.79,12.63-.08,1.15-.84,1.42-1.83,1.41-2.88,0-5.76,0-8.64,0-2.16,0-4.31-.18-6.47-.18q-15.72,0-31.44,0a17.35,17.35,0,0,1-1.91,0c-1.31-.15-1.69-.64-1.46-1.92.72-3.92,1.44-7.83,2.22-11.73.48-2.4.71-2.48,3.2-2.44,3.84.05,7.68,0,11.52,0,1.79,0,2.35-.49,2.49-2.15.4-4.68.82-9.36,1.13-14,.38-5.81.57-11.62,1-17.42.85-12,.36-24,.42-35.94,0-4.94-.32-9.88-.61-14.81-.39-6.44-.85-12.87-1.34-19.3-.27-3.49-.67-7-1.05-10.46-.21-1.95-.42-2.14-2.39-2.16-3.76,0-7.52,0-11.27,0-2.64,0-3-.31-3.42-2.9-.54-3.3-1-6.61-1.63-9.9C253.71,373.42,253.26,372.06,252.78,370.26Z" transform="translate(-252.78 -318.05)"/><path class="cls-1" d="M338.45,369.59c2.16,0,4.32,0,6.48,0a3.74,3.74,0,0,1,2.8,1c3.54,3.22,7.15,6.37,10.71,9.56,2,1.81,4,3.65,6.05,5.45a4,4,0,0,1,1.47,3.56c-.43,6.6-.79,13.2-1.13,19.81-.21,4.14-.41,8.28-.47,12.43q-.3,21.07-.48,42.16c0,4,0,8,.16,12,.27,7.17.62,14.33,1,21.49a43.61,43.61,0,0,0,.43,5,3.73,3.73,0,0,1-1.65,3.71c-2.33,1.94-4.62,3.92-7,5.83-3.16,2.56-6.34,5.11-9.59,7.56a5.24,5.24,0,0,1-2.81,1c-4.15.11-8.32.07-12.48,0-1.83,0-2.1-.27-2.12-2.07q-.06-6.12,0-12.23c0-1.59.38-1.92,2-2,1.44-.05,2.89.08,4.32-.05a4.8,4.8,0,0,0,2.41-.79c1.77-1.35,3.43-2.85,5.12-4.31,1.08-.95,1.81-2,1.26-3.57a4.52,4.52,0,0,1-.09-1.43q-.09-9.82-.16-19.65c-.11-12.38-.32-24.76-.29-37.14,0-11.34.28-22.67.46-34,0-2.31.17-4.62.32-6.92a3.08,3.08,0,0,0-1.15-2.73c-1.8-1.58-3.49-3.28-5.36-4.77a5.21,5.21,0,0,0-2.62-.9c-1.34-.15-2.71,0-4.07,0-1.81-.08-2.15-.39-2.16-2.11,0-4.63,0-9.27,0-13.9,0-1.78.29-2,2.17-2,2.16,0,4.32,0,6.48,0Z" transform="translate(-252.78 -318.05)"/><path class="cls-1" d="M552.51,409.92V373c0-2.91,0-2.92,2.87-2.92,7.92,0,15.84-.07,23.76,0,7.52.09,14.33,2.35,19.84,7.58a27.37,27.37,0,0,1,8.25,16.1,41.3,41.3,0,0,1,.45,6.19q.09,10.43,0,20.86a30.48,30.48,0,0,1-7,19.91c-3.27,3.94-7.53,6.31-12.28,8-3.9,1.36-8,1.41-12.06,1.46-6.95.1-13.92,0-20.88,0-3,0-3-.12-3-3.08Q552.54,428.52,552.51,409.92Zm37.92.05c0-3.35-.07-6.71,0-10.06a17.34,17.34,0,0,0-.92-5.87c-1.55-4.82-5.44-8.08-10-8.33-2.62-.14-5.26-.19-7.89-.22-1.48,0-2.08.66-2.14,2.24,0,.56,0,1.12,0,1.68v35.72c0,2.47,0,4.95,0,7.43,0,1.58.41,2,2,2,2.4.06,4.8.08,7.2,0,4.94-.18,8.55-2.5,10.33-7.14a22.34,22.34,0,0,0,1.39-6.46C590.59,417.34,590.43,413.65,590.43,410Z" transform="translate(-252.78 -318.05)"/><path class="cls-1" d="M698,410.12V373.68c0-.4,0-.8,0-1.2,0-2.38,0-2.4,2.42-2.4,7.44,0,14.88-.07,22.31,0,5.58.07,11,1.16,15.76,4.17,6.35,4,9.6,9.91,10,17.29a55,55,0,0,1-.46,10.73,19.75,19.75,0,0,1-7.83,13.25c-2,1.57-2,1.56-1,3.92q6.33,14.19,12.62,28.39c.73,1.64.38,2.3-1.36,2.32-4.64,0-9.28,0-13.91,0a2.71,2.71,0,0,1-2.69-1.94c-3.6-8.25-7.31-16.45-10.86-24.72-.91-2.14-2.14-3-4.52-2.86-3.7.2-3.71,0-3.71,3.69,0,7.67,0,15.34,0,23,0,2.46-.27,2.77-2.72,2.8-3.84,0-7.68,0-11.52,0-2.37,0-2.55-.2-2.55-2.64Q697.94,428.83,698,410.12ZM714.89,405a8.44,8.44,0,0,0,1.67.3c2.07,0,4.14-.07,6.2-.27,5.28-.49,8.23-3.24,8.71-8.41.35-3.81-.33-7.48-4.09-9.47a17.21,17.21,0,0,0-5.46-1.45c-1.48-.24-3,0-4.54-.11-2.4-.18-2.62-.05-2.63,2.35,0,5,0,10,0,15.08C714.75,403.68,714.84,404.31,714.89,405Z" transform="translate(-252.78 -318.05)"/><path class="cls-1" d="M544.79,449.55a9.12,9.12,0,0,1-2.21.6c-4.32.06-8.64.05-13,0-1.7,0-2-.28-2.52-2-1.1-3.83-2.14-7.67-3.23-11.5-.44-1.55-1-1.8-2.57-1.78q-8,.06-16.06,0c-1.36,0-2,.38-2.47,2q-1.47,5.16-2.81,10.37c-.65,2.53-.91,2.82-3.57,2.83q-6.22,0-12.46,0c-1.71,0-2-.56-1.57-2.28,1.55-5.68,3.05-11.37,4.61-17.05,1.44-5.22,3-10.41,4.41-15.64,1.74-6.37,3.41-12.76,5.15-19.13q3.24-11.85,6.55-23.7c.6-2.14.81-2.27,3-2.27q7.32,0,14.63,0c2,0,2.52.41,3,2.32,2.1,7.68,4.16,15.37,6.24,23.05.88,3.22,1.79,6.43,2.68,9.65,1,3.6,2,7.2,3,10.8,1.19,4.3,2.4,8.59,3.56,12.89C541,435.55,542.84,442.32,544.79,449.55Zm-37.48-29.81c1,.1,1.58.21,2.19.21,2.55,0,5.1,0,7.65,0,2.3,0,2.41-.12,1.89-2.3-1.38-5.7-2.78-11.39-4.26-17.07-.32-1.23,0-2.7-1.26-3.81-.3.38-.66.63-.75,1C511,405,509.18,412.16,507.31,419.74Z" transform="translate(-252.78 -318.05)"/><path class="cls-1" d="M662.53,386v2.48c0,3.43.06,6.86,0,10.3-.08,2.76,0,3,2.88,3h18.23c2.53,0,2.79.24,2.81,2.69,0,3.35,0,6.71,0,10.06a19.72,19.72,0,0,1-.4,2.59h-20.2c-.56,0-1.12,0-1.68,0a1.59,1.59,0,0,0-1.69,1.85q0,6.82,0,13.65c0,1.56.34,1.93,2,2,.88.05,1.76,0,2.64,0h17.75c3.08,0,3.19.13,3.19,3.28,0,3.36,0,6.72,0,10.07,0,1.77-.32,2-2.09,2.19-.48,0-1,0-1.44,0H648.75a13.43,13.43,0,0,1-1.68,0,1.71,1.71,0,0,1-1.73-2.09c.1-2.15.27-4.3.27-6.44q0-33,0-65.93c0-1-.1-2.06-.2-3.09-.18-1.87.32-2.52,2.17-2.52q19.06,0,38.14,0c1.91,0,2.26.36,2.28,2.23q.06,5.63,0,11.27c0,1.61-.32,1.9-1.94,2.08a7.64,7.64,0,0,1-1,0c-6.79-.06-13.58-.13-20.37-.16A11.87,11.87,0,0,0,662.53,386Z" transform="translate(-252.78 -318.05)"/><path class="cls-1" d="M776.36,386.29v15.44h2.73c6.07,0,12.15,0,18.23,0,2.66,0,2.85.2,2.86,2.87,0,3.28,0,6.56,0,9.83,0,2.42-.21,2.63-2.58,2.64H779.85c-.56,0-1.12,0-1.68,0-1.6.1-1.95.41-2,2,0,3,0,5.91,0,8.87,0,2.06,0,4.12,0,6.37,1.22.1,2.15.25,3.09.25,6.31,0,12.63,0,19,0a17.39,17.39,0,0,1,1.91,0c1.39.16,1.86.83,1.85,2.26,0,3.74-.05,7.49,0,11.23a1.75,1.75,0,0,1-1.58,2,10.3,10.3,0,0,1-1.67,0H761.79c-2.16-.09-2.41-.36-2.41-2.57q0-37,0-74.08c0-3.46,0-3.46,3.36-3.46h35.74c.48,0,1,0,1.44,0,1.49.09,1.82.36,1.84,1.88,0,3.91,0,7.83,0,11.75a1.64,1.64,0,0,1-1.62,1.92q-.6.06-1.2.06H780.27C779,385.7,777.57,385,776.36,386.29Z" transform="translate(-252.78 -318.05)"/><path class="cls-1" d="M926.55,369.09a40,40,0,0,1,15,3.44,2.13,2.13,0,0,1,1.31,2.52c-.36,3.48-.7,7-1,10.44-.05.56,0,1.12-.07,1.68-.13,1.82-.83,2.2-2.5,1.48a52.12,52.12,0,0,0-6.64-2.64c-3.47-.91-7-1.58-10.63-.67a7.57,7.57,0,0,0-6,6.92,7,7,0,0,0,4.36,7.49c3.86,1.69,7.87,3.05,11.74,4.73a46.48,46.48,0,0,1,7.15,3.78,17,17,0,0,1,7.06,10.45c.64,2.62,1.42,5.24,1.16,8-1,10.79-5.65,19.61-17.35,23.26a39.06,39.06,0,0,1-15.62,1.14,41.41,41.41,0,0,1-14.22-3.89,3.34,3.34,0,0,1-2.06-3.84c.46-4.18.85-8.37,1.29-12.56.15-1.41.78-1.66,2.15-1a80.34,80.34,0,0,0,8.66,4c4.5,1.51,9.15,2.12,13.84.61a7.66,7.66,0,0,0,5.53-6.3c.61-3.46-.5-6.42-3.67-8.15-2.36-1.29-4.93-2.19-7.41-3.28-2.92-1.27-5.92-2.39-8.73-3.86-6.08-3.19-10.09-8.1-10.95-15-1.05-8.44.52-16.21,6.93-22.4a22.88,22.88,0,0,1,10.21-5.47A34.84,34.84,0,0,1,926.55,369.09Z" transform="translate(-252.78 -318.05)"/><path class="cls-1" d="M839.12,369.08a38.29,38.29,0,0,1,14.8,3.37c1.64.73,1.81,1,1.64,2.9-.38,4-.75,8.08-1.15,12.12-.15,1.48-1,2-2.32,1.26a28.41,28.41,0,0,0-11.56-3.57,20.86,20.86,0,0,0-5.47.13c-5.33.94-7.65,6.2-5.67,11a6.42,6.42,0,0,0,3.55,3.41c2.85,1.23,5.76,2.33,8.65,3.46,3.64,1.43,7.34,2.69,10.5,5.11,4.42,3.39,7,7.76,7.28,13.39a71.6,71.6,0,0,1,0,8.79,21.22,21.22,0,0,1-9,15.7,26.47,26.47,0,0,1-14.25,5,45.57,45.57,0,0,1-20.43-2.79c-.81-.33-1.62-.69-2.4-1.08-2.56-1.3-2.71-1.66-2.38-4.5.45-4,.84-7.91,1.25-11.86.16-1.59.81-2,2.22-1.1a35.31,35.31,0,0,0,12.39,4.89,20.47,20.47,0,0,0,10.16-.35,8.17,8.17,0,0,0,5.47-6.64c.4-3.75-.93-6.64-4.4-8.22s-7.22-3-10.82-4.46c-4-1.67-7.78-3.71-10.76-7a18.61,18.61,0,0,1-4.8-10.95,29.87,29.87,0,0,1,.68-11.12c2.36-8.71,8-14.06,16.82-16.21A34.83,34.83,0,0,1,839.12,369.08Z" transform="translate(-252.78 -318.05)"/><path class="cls-1" d="M438,409.87V373.42c0-.64,0-1.28,0-1.92,0-1,.52-1.43,1.5-1.43,1.68,0,3.36,0,5,0,2.56,0,5.12,0,7.68,0,2.39,0,2.53.16,2.56,2.63,0,.56,0,1.12,0,1.68v56.36c0,.48,0,1,0,1.44,0,2.31.12,2.42,2.45,2.43h18.72c2.81,0,3,.38,2.88,3.2-.14,3.19-.1,6.4,0,9.59.08,2.18-.22,2.74-2.39,2.75-5.19,0-10.39,0-15.59,0H441.17c-.56,0-1.12,0-1.68,0a1.44,1.44,0,0,1-1.57-1.67c0-.8,0-1.6,0-2.4Z" transform="translate(-252.78 -318.05)"/><path class="cls-1" d="M617.47,410.11V373.68c0-.64,0-1.29,0-1.92a1.66,1.66,0,0,1,1.87-1.7q6.6,0,13.19,0a1.85,1.85,0,0,1,2,1.7,8.53,8.53,0,0,1,.06,1.68q0,36.78,0,73.57c0,2.85-.23,3-3.16,3.05-3.68,0-7.35.1-11,.1-2.53,0-2.92-.42-2.92-2.92Q617.46,428.68,617.47,410.11Z" transform="translate(-252.78 -318.05)"/><path class="cls-1" d="M870.27,410.12V373.7c0-.64,0-1.27,0-1.91a1.56,1.56,0,0,1,1.8-1.72c4.31,0,8.63,0,12.94,0,1.58,0,2.17.63,2.17,2.18s-.12,3.18-.12,4.77q0,34.14,0,68.28c0,.87.1,1.75.12,2.63,0,1.48-.44,2.17-1.87,2.19-4.39.07-8.79.08-13.18,0-1.63,0-1.87-.5-1.87-2.64q0-14.26,0-28.51Z" transform="translate(-252.78 -318.05)"/><path class="cls-1" d="M708.73,489.8c1.5-2.73,3.95-1.49,6-1.62.28,0,.75.56.87.95a5.73,5.73,0,0,1,.07,1.66q0,12.22,0,24.44c0,2.48-.29,2.73-2.67,2.87-1.75.11-3.32-.14-4.37-1.83-.8.54-1.42,1-2.1,1.42-5.23,2.86-11.4-.49-13.18-5.27a13,13,0,0,1-.83-3.94c-.22-4.91-.88-9.89.87-14.67a9.6,9.6,0,0,1,12.12-5.7A25.34,25.34,0,0,1,708.73,489.8Zm.26,13.4c0-2,0-4,0-6a3.88,3.88,0,0,0-.54-2,5.81,5.81,0,0,0-5.6-1.79,5.21,5.21,0,0,0-3.74,5.22c-.07,3-.1,6.07,0,9.09.15,4.2,3.86,6.3,7.64,4.48A3.42,3.42,0,0,0,709,508.7C708.91,506.87,709,505,709,503.2Z" transform="translate(-252.78 -318.05)"/><path class="cls-1" d="M284.43,319a7.87,7.87,0,0,1,2-.69c2.06-.09,4.12-.05,6.18-.05,5,0,10.08,0,15.12,0,2.33,0,2.41.16,2.54,2.41.25,4.53.57,9.06.85,13.59.16,2.44,0,2.67-2.4,2.7-6.38.09-12.75.2-19.13.26-2.79,0-3-.3-3.35-3.11C285.69,329.15,285.05,324.19,284.43,319Z" transform="translate(-252.78 -318.05)"/><path class="cls-1" d="M334.67,337c-3.35,0-6.71,0-10.06,0-1.72,0-2-.26-2-1.93-.13-4.7-.25-9.39-.32-14.09,0-2.47.18-2.65,2.52-2.67l19.62-.21a15.38,15.38,0,0,1,1.92,0c1.2.14,1.71.72,1.64,1.89q-.45,7.38-.92,14.75c-.11,1.81-.48,2.21-2.33,2.23C341.38,337,338,337,334.67,337Z" transform="translate(-252.78 -318.05)"/><path class="cls-1" d="M481.51,503c.12-2,.14-4,.4-5.94.73-5.52,4.18-8.94,9.69-9.44,4.23-.38,8,.59,10.92,4.09a10,10,0,0,1,2.3,5.91,87,87,0,0,1-.17,11.42c-.41,4.53-3.06,7.37-7.4,9-3.72,1.37-7.05.7-10.3-1-3.91-2-5.16-5.62-5.31-9.74-.06-1.43,0-2.87,0-4.3Zm6.68,0h.06a46.86,46.86,0,0,0,0,5,4.92,4.92,0,0,0,4.55,4.73c3,.15,4.73-.93,5.12-4.12a88.79,88.79,0,0,0,.23-10.71,5.31,5.31,0,0,0-.52-1.82,4.55,4.55,0,0,0-5.9-2.6c-2.43.88-3.36,2.81-3.55,5.18C488.1,500.17,488.19,501.61,488.19,503.05Z" transform="translate(-252.78 -318.05)"/><path class="cls-1" d="M776.83,503.19c0,1.44-.07,2.88,0,4.31A11,11,0,0,1,769.38,518c-5,1.48-9.11.59-12.78-2.87a8.5,8.5,0,0,1-2.77-5.91c-.15-3.82-.2-7.66-.07-11.48.17-5.23,3.84-9.59,10.15-10.13,3.76-.33,7.29.43,10,3.39a10.21,10.21,0,0,1,2.87,7.12C776.84,499.84,776.83,501.51,776.83,503.19Zm-16.48,0c0,1.6-.07,3.2,0,4.79.15,2.51,2,4.69,4.13,4.86,3.09.25,4.94-.95,5.52-4a31.14,31.14,0,0,0-.12-12.09,4.62,4.62,0,0,0-2.72-3.12c-2.63-1.34-6.64.92-6.81,4.54C760.29,499.81,760.35,501.49,760.35,503.16Z" transform="translate(-252.78 -318.05)"/><path class="cls-1" d="M589.63,503.16c0,1.6,0,3.19,0,4.79,0,4.93-2.73,8.3-7.35,10-3.88,1.45-7.37.77-10.74-1.13a9.6,9.6,0,0,1-4.92-8.5c-.12-3.27,0-6.55,0-9.82-.07-5.88,4.09-10.51,10.36-10.91,3.88-.25,7.46.57,10.15,3.74a9.62,9.62,0,0,1,2.52,6c0,1.92,0,3.83,0,5.75Zm-16.72-.2.23,0a21.33,21.33,0,0,0,0,2.4,21,21,0,0,0,.73,4.65,4.16,4.16,0,0,0,4.25,2.83,4.26,4.26,0,0,0,4.32-2.75,9.75,9.75,0,0,0,.73-3.47c.11-2.38.08-4.78,0-7.18a10.21,10.21,0,0,0-.48-2.79,4.75,4.75,0,0,0-4.38-3.47,4.65,4.65,0,0,0-4.62,3.43A55,55,0,0,0,572.91,503Z" transform="translate(-252.78 -318.05)"/><path class="cls-1" d="M686.1,505.25c-.72,0-1.5.09-2.27.09-3.52,0-7,0-10.55,0-1.89,0-2.37.78-1.92,2.58,1.08,4.4,4.71,5.6,9.28,4.6a34.61,34.61,0,0,0,4.11-1.47,6.08,6.08,0,0,1,1.23,4.68c0,.52-.85,1.17-1.45,1.4-4.43,1.76-8.92,2.48-13.44.3-3.92-1.89-6.19-4.94-6.25-9.39-.05-3.43.15-6.88-.06-10.3-.22-3.75,3.61-9.3,8.19-9.84,2.76-.33,5.37-.46,7.92.75a9.5,9.5,0,0,1,5.33,7.2A25.49,25.49,0,0,1,686.1,505.25Zm-6-5.19c.52-2.65.19-4.72-1.8-6.1a4.19,4.19,0,0,0-4.92,0,6.39,6.39,0,0,0-2.24,4.75,1.38,1.38,0,0,0,1.45,1.31C675,500.08,677.47,500.06,680.1,500.06Z" transform="translate(-252.78 -318.05)"/><path class="cls-1" d="M550.12,505.35h-7c-2,0-4,0-6,0-2.34,0-2.74.72-2,3,1.24,4.1,4.66,5,8.89,4.25a34,34,0,0,0,4.42-1.45c1.26,1.13,1,2.88,1.49,4.3.1.25-.53,1-1,1.21-3.57,1.78-7.29,2.75-11.31,1.73-3.37-.85-6.35-2.35-7.92-5.62a12,12,0,0,1-1.16-4.56c-.17-3.27.06-6.55-.08-9.82-.26-6.53,5.12-11.81,13-10.68,5,.72,8.21,4.27,8.62,9.61C550.28,499.85,550.12,502.4,550.12,505.35Zm-10.6-5.29h0c1,0,2.08,0,3.12,0a1.44,1.44,0,0,0,1.58-1.17c.37-1.6-1.23-4.49-2.72-5.22-3-1.49-6.59.55-6.7,5,0,1,.69,1.39,1.6,1.41S538.48,500.06,539.52,500.06Z" transform="translate(-252.78 -318.05)"/><path class="cls-1" d="M790.15,489.82a26.82,26.82,0,0,1,3.46-1.75c5.75-1.86,11.39,1.76,11.77,8.57.37,6.45.1,12.94.07,19.42,0,1.45-.36,1.76-1.81,2-.16,0-.32,0-.48,0-4,.32-4.41,0-4.41-4q0-7.19,0-14.38a10.18,10.18,0,0,0-.14-2.14c-.48-2.25-2.47-3.9-4.35-3.7-2.73.29-4.45,2.06-4.46,4.65,0,5.19,0,10.38,0,15.58a13.57,13.57,0,0,0,.05,1.43c.22,2.06,0,2.42-2,2.54a17.92,17.92,0,0,1-3.11-.06c-1.26-.16-1.6-.74-1.59-1.93q0-13,0-26.06c0-1.31.43-1.85,1.81-1.93.64,0,1.28,0,1.92,0C788.31,487.93,789.57,488.11,790.15,489.82Z" transform="translate(-252.78 -318.05)"/><path class="cls-1" d="M597.61,494l-2-.11a4.23,4.23,0,0,1-1.19-.06c-2.08-.81-.84-2.61-1.1-4-.19-.95.12-1.69,1.36-1.76,1-.05,2.35,0,2.83-.59s.27-2,.24-3a14.67,14.67,0,0,1,1-5.85c1.94-5,7.45-6.26,11.55-5.43a1.5,1.5,0,0,1,1.38,1.87c-.22,1.32-.53,2.61-.83,4-.52-.06-.9-.07-1.27-.14-2.63-.45-4.25.47-4.81,3a28.11,28.11,0,0,0-.4,4.51c-.06,1.11.65,1.56,1.66,1.59,1.19,0,2.38,0,3.89,0,.06,1.62.17,3,.14,4.42a1.35,1.35,0,0,1-1.43,1.33c-.32,0-.64,0-1,0-3.24-.09-3.34-.11-3.32,3.27,0,6.32,0,12.63.07,18.94,0,1.51-.23,1.79-1.72,2-4.21.63-4.9.05-4.9-4.17q0-9.11,0-18.22A16.83,16.83,0,0,0,597.61,494Z" transform="translate(-252.78 -318.05)"/><path class="cls-1" d="M477.16,512.52c1,1.43.47,3.05.44,4.59,0,.32-.58.7-1,.93-3.27,1.9-10.48.12-11-5.29-.11-1.1-.29-2.21-.3-3.31,0-4.32,0-8.64,0-12.95,0-.78-.08-1.55-.14-2.48l-2.26-.18c-1.69-.15-1.93-.4-1.94-2,0-.24,0-.48,0-.72,0-2.69,0-2.74,2.81-3,1.15-.1,1.51-.68,1.5-1.71,0-1.91,0-3.83,0-5.75,0-2.32.33-2.59,2.65-2.62C472,478,472,478,472,482.07c0,1.36-.08,2.71-.1,4.07s.35,1.81,1.81,1.93c.32,0,.64,0,1,0,1,.12,2.41-.52,2.76.73a12.12,12.12,0,0,1,.07,4.21c0,.3-.84.66-1.33.76a14.11,14.11,0,0,1-2.16,0c-1.83.06-2.1.36-2.1,2.08q0,6.34,0,12.68c0,3.14,1.27,4.24,4.44,3.85A3.72,3.72,0,0,1,477.16,512.52Z" transform="translate(-252.78 -318.05)"/><path class="cls-1" d="M455.61,494.93c-1.89-.61-3.3-1.12-4.73-1.53a5.52,5.52,0,0,0-4.19.4,2.84,2.84,0,0,0-1.79,2.59,2.65,2.65,0,0,0,1.7,2.85c1.48.57,3,1,4.51,1.56.82.3,1.62.64,2.42,1,3.43,1.59,4.62,4.52,4.37,8-.26,3.77-2,6.56-5.76,8-4.47,1.74-8.6.76-12.73-1-1.21-.51-1.79-1.26-1.23-2.63a5.93,5.93,0,0,0,.24-1.65c.19-2.11.42-2.25,2.25-1.36a13.7,13.7,0,0,0,7.14,1.62c2.11-.16,3.49-1.15,3.82-2.93a3.81,3.81,0,0,0-2.75-4c-1.51-.51-3.08-.87-4.57-1.42-3.59-1.32-5.79-4.13-5.88-7.38-.11-4.06,1.65-7.15,5.22-8.58a14.87,14.87,0,0,1,11.2.17c1.47.58,1.63,1.09,1.34,2.8Z" transform="translate(-252.78 -318.05)"/><path class="cls-1" d="M811.88,510.49a13,13,0,0,1,1.86.66,12.93,12.93,0,0,0,7.35,1.67c2-.15,3.33-1.1,3.64-2.81a3.44,3.44,0,0,0-2.42-3.91c-1.18-.49-2.42-.8-3.63-1.21a21.35,21.35,0,0,1-2.22-.88c-3.4-1.7-5.08-4.31-4.8-8.27a7.77,7.77,0,0,1,5.09-7.15,14.37,14.37,0,0,1,11.58.3,1.61,1.61,0,0,1,1.12,1.87c-.18,1.31-.43,2.61-.71,4.23-1-.36-1.68-.65-2.4-.88-2.13-.67-4.26-1.48-6.48-.34a2.94,2.94,0,0,0-1.92,2.77,3,3,0,0,0,1.9,2.8,7.62,7.62,0,0,0,1.34.48c1.29.42,2.59.8,3.87,1.24,4.07,1.41,6.09,4.08,6,8.21-.1,3.76-1.64,7-6.13,8.72-4.18,1.55-8,.56-11.86-.83-1.88-.69-2-1.18-1.66-3.14.09-.55.22-1.09.3-1.64S811.79,511.32,811.88,510.49Z" transform="translate(-252.78 -318.05)"/><path class="cls-1" d="M736.43,488.08a45.28,45.28,0,0,1,0,4.54,1.79,1.79,0,0,1-1.19,1.14,21,21,0,0,1-2.87.09c-1.29.07-1.73.5-1.74,1.75,0,4.3-.05,8.61,0,12.92,0,3.14,1.53,4.35,4.71,3.9a2.67,2.67,0,0,1,.81.14c.67,1.32.41,2.78.29,4.16a2.29,2.29,0,0,1-1.14,1.35c-3.54,2-10.79-.34-10.92-5.68q-.17-6.81-.32-13.63c0-.64,0-1.27,0-1.91,0-2.67,0-2.65-2.77-3-.43-.06-1.17-.34-1.19-.56a29.13,29.13,0,0,1,0-4.67c0-.21,1.08-.44,1.68-.48,2.38-.18,2.39-.21,2.33-2.69,0-2,0-4,.11-5.91a1.39,1.39,0,0,1,1.53-1.49h.24c5.1,0,4.85-.57,4.81,4.46,0,1,0,2.07-.09,3.11-.1,2.11.22,2.45,2.43,2.5Z" transform="translate(-252.78 -318.05)"/><path class="cls-1" d="M641,494.67c-1.14-.43-1.83-.62-2.46-.94a5.91,5.91,0,0,0-8.32,5.57q0,3.6,0,7.2c-.06,5,4,7.54,8.94,5.88.67-.23,1.32-.54,2-.84,1,1.27,1,2.73,1.08,4.11.07,1-.7,1.51-1.57,1.9a12.37,12.37,0,0,1-12.52-1,8.55,8.55,0,0,1-4.18-6.89c-.15-4.29-.19-8.59,0-12.88s2.85-6.83,6.56-8.33a12.56,12.56,0,0,1,9.77.18,2.21,2.21,0,0,1,1.51,2.81C641.69,492.41,641.39,493.36,641,494.67Z" transform="translate(-252.78 -318.05)"/><path class="cls-1" d="M517.19,488.22l.84,2.1,1.52-.64a36.4,36.4,0,0,1,3.71-1.56,1.3,1.3,0,0,1,1.83,1.28c.07,1.49,0,3,0,4.56-1.41.37-2.56.61-3.68,1-2.7.88-3.48,2-3.48,4.87,0,5.19,0,10.38,0,15.57,0,2.34-.29,2.63-2.56,2.71h-1.19c-2.81-.05-3-.2-3-3q0-12.09,0-24.19c0-.85.13-1.69.2-2.66Z" transform="translate(-252.78 -318.05)"/><path class="cls-1" d="M653.46,488.08l.9,2.43c1.13-.62,2.1-1.24,3.15-1.69a35.31,35.31,0,0,1,3.44-1.07c.17,1.18.33,2,.4,2.79.06.62,0,1.25,0,1.86a1.59,1.59,0,0,1-1.32,1.92,25.62,25.62,0,0,0-3,.91c-2.21.86-2.81,1.77-2.81,4.12,0,5.35,0,10.7,0,16,0,2.33-.3,2.62-2.58,2.69-4,.13-4.13,0-4.13-4q0-11.61,0-23.24c0-2.6.13-2.71,2.69-2.73Z" transform="translate(-252.78 -318.05)"/><path class="cls-1" d="M685.14,357.2c.13,4.51-4.47,7.75-8.18,7.6a7.91,7.91,0,1,1,.55-15.82C681.46,348.93,685.6,353.28,685.14,357.2Z" transform="translate(-252.78 -318.05)"/><path class="cls-1" d="M650,356.89c-.5-4.43,4.11-8,7.78-7.93a8.2,8.2,0,0,1,7.85,8.46c0,3.84-3.75,7.38-7.89,7.37A7.61,7.61,0,0,1,650,356.89Z" transform="translate(-252.78 -318.05)"/><path class="cls-1" d="M741.15,518V491c0-.56,0-1.12,0-1.67a1.1,1.1,0,0,1,1.2-1.19l.24,0c4.65-.46,4.77-.35,4.78,4.33,0,7.89,0,15.79.12,23.68,0,1.21-.45,1.86-1.58,1.92C744.44,518.09,742.94,518,741.15,518Z" transform="translate(-252.78 -318.05)"/><path class="cls-1" d="M843.54,514.37a4.42,4.42,0,0,1-4.16,4.4,4.66,4.66,0,0,1-4.13-4.23c0-2.39,1.43-4.1,4.15-4.32C841.44,510.05,843.5,512.23,843.54,514.37Z" transform="translate(-252.78 -318.05)"/><path class="cls-1" d="M744.35,481.84a4.15,4.15,0,0,1-4-3.75,4.1,4.1,0,0,1,3.8-3.91,3.83,3.83,0,0,1,.16,7.66Z" transform="translate(-252.78 -318.05)"/><path class="cls-2" d="M590.43,410c0,3.68.16,7.37-.06,11a22.34,22.34,0,0,1-1.39,6.46c-1.78,4.64-5.39,7-10.33,7.14-2.4.08-4.8.06-7.2,0-1.56,0-1.94-.46-2-2,0-2.48,0-5,0-7.43V389.41c0-.56,0-1.12,0-1.68.06-1.58.66-2.25,2.14-2.24,2.63,0,5.27.08,7.89.22,4.59.25,8.48,3.51,10,8.33a17.34,17.34,0,0,1,.92,5.87C590.36,403.26,590.43,406.62,590.43,410Z" transform="translate(-252.78 -318.05)"/><path class="cls-2" d="M714.89,405c0-.73-.14-1.36-.14-2,0-5,0-10.06,0-15.08,0-2.4.23-2.53,2.63-2.35,1.51.1,3.06-.13,4.54.11a17.21,17.21,0,0,1,5.46,1.45c3.76,2,4.44,5.66,4.09,9.47-.48,5.17-3.43,7.92-8.71,8.41-2.06.2-4.13.22-6.2.27A8.44,8.44,0,0,1,714.89,405Z" transform="translate(-252.78 -318.05)"/><path class="cls-2" d="M507.31,419.74c1.87-7.58,3.65-14.79,5.46-22,.09-.33.45-.58.75-1,1.22,1.11.94,2.58,1.26,3.81,1.48,5.68,2.88,11.37,4.26,17.07.52,2.18.41,2.28-1.89,2.3-2.55,0-5.1,0-7.65,0C508.89,420,508.27,419.84,507.31,419.74Z" transform="translate(-252.78 -318.05)"/><path class="cls-2" d="M709,503.2c0,1.84-.08,3.67,0,5.5a3.42,3.42,0,0,1-2.28,3.53c-3.78,1.82-7.49-.28-7.64-4.48-.11-3-.08-6.06,0-9.09a5.21,5.21,0,0,1,3.74-5.22,5.81,5.81,0,0,1,5.6,1.79,3.88,3.88,0,0,1,.54,2C709,499.21,709,501.21,709,503.2Z" transform="translate(-252.78 -318.05)"/><path class="cls-2" d="M488.19,503.05c0-1.44-.09-2.88,0-4.31.19-2.37,1.12-4.3,3.55-5.18a4.55,4.55,0,0,1,5.9,2.6,5.31,5.31,0,0,1,.52,1.82,88.79,88.79,0,0,1-.23,10.71c-.39,3.19-2.13,4.27-5.12,4.12a4.92,4.92,0,0,1-4.55-4.73,46.86,46.86,0,0,1,0-5Z" transform="translate(-252.78 -318.05)"/><path class="cls-2" d="M760.35,503.16c0-1.67-.06-3.35,0-5,.17-3.62,4.18-5.88,6.81-4.54a4.62,4.62,0,0,1,2.72,3.12,31.14,31.14,0,0,1,.12,12.09c-.58,3.05-2.43,4.25-5.52,4-2.08-.17-4-2.35-4.13-4.86C760.28,506.36,760.35,504.76,760.35,503.16Z" transform="translate(-252.78 -318.05)"/><path class="cls-2" d="M572.91,503a55,55,0,0,1,.82-6.33,4.65,4.65,0,0,1,4.62-3.43,4.75,4.75,0,0,1,4.38,3.47,10.21,10.21,0,0,1,.48,2.79c.06,2.4.09,4.8,0,7.18a9.75,9.75,0,0,1-.73,3.47,4.26,4.26,0,0,1-4.32,2.75,4.16,4.16,0,0,1-4.25-2.83,21,21,0,0,1-.73-4.65,21.33,21.33,0,0,1,0-2.4Z" transform="translate(-252.78 -318.05)"/><path class="cls-2" d="M680.1,500.06c-2.63,0-5.07,0-7.51,0a1.38,1.38,0,0,1-1.45-1.31,6.39,6.39,0,0,1,2.24-4.75,4.19,4.19,0,0,1,4.92,0C680.29,495.34,680.62,497.41,680.1,500.06Z" transform="translate(-252.78 -318.05)"/><path class="cls-2" d="M539.52,500.06c-1,0-2.08,0-3.12,0s-1.62-.45-1.6-1.41c.11-4.41,3.69-6.45,6.7-5,1.49.73,3.09,3.62,2.72,5.22a1.44,1.44,0,0,1-1.58,1.17c-1,0-2.08,0-3.12,0Z" transform="translate(-252.78 -318.05)"/></svg>