<?xml version="1.0" encoding="utf-8"?>
<!-- Generator: Adobe Illustrator 15.0.2, SVG Export Plug-In . SVG Version: 6.00 Build 0)  -->
<!DOCTYPE svg PUBLIC "-//W3C//DTD SVG 1.1//EN" "http://www.w3.org/Graphics/SVG/1.1/DTD/svg11.dtd">
<svg version="1.1" id="Layer_1" xmlns="http://www.w3.org/2000/svg" xmlns:xlink="http://www.w3.org/1999/xlink" x="0px" y="0px"
	 width="900px" height="348.301px" viewBox="0 0 900 348.301" enable-background="new 0 0 900 348.301" xml:space="preserve">
<g id="Fondo_xA0_Image_1_">
</g>
<g id="LD_xA0_Image_1_">
	<g id="XMLID_1_">
		<g>
			<path fill="#FFFFFF" d="M822.574,165.735c0.131,4.189-0.1,7.58-0.88,10.74c-0.949,3.88-2.739,6.83-4.5,9.87
				c-1.22,1.489-2.84,2.579-3.909,4.21c-0.851,0.029-1.08,0.67-1.461,1.159c-1.188,0.41-2.31,0.891-3.039,1.75
				c-1.171,0.141-2.091,0.521-2.619,1.301c-2.552,0.6-5.11,1.18-7.69,1.75c-4.75-0.061-9.24,0.18-13.36-0.301
				c-2.51-0.29-4.68-1.229-6.96-1.449c0.312-0.74-0.739-0.13-0.58-0.721c-3.238-0.641-5.39-2.359-7.84-3.779
				c0.96-5.761,1.062-12.391,1.74-18.431c3.03,1.61,5.71,3.58,9.43,4.5c0.78,1.261,3.12,0.95,4.21,1.88
				c8.722,2.311,19.95,0.211,18.58-10.739c-0.67-2.181-2.68-3.021-3.909-4.641c-3.101-1.359-5.75-3.16-9.29-4.069
				c0-0.141,0-0.29,0-0.431c-10-2.729-17.551-7.91-19.75-18.439c-0.091-0.681,0.25-1.79-0.289-2.03
				c-0.07-4.229-0.102-8.58,0.868-11.9c0.28-0.93,0.882-1.88,1.171-2.619c0.109-0.301-0.091-0.73,0-1.011
				c0.101-0.35,0.671-0.92,0.869-1.31c0.32-0.65,0.44-1.38,0.58-1.601c0.142-0.21,0.53-0.079,0.722-0.289
				c0.398-0.421,0.34-1.19,0.58-1.591c0.04-0.06,0.52-0.159,0.578-0.29c0.07-0.14-0.09-0.47,0-0.58c0.36-0.47,1.432-0.97,1.75-1.46
				c0.07-0.119-0.1-0.479,0-0.579c0.342-0.351,1.04-0.5,1.45-0.87c0.86-0.761,1.37-1.801,2.61-2.17
				c0.24-0.08,0.32-0.521,0.438-0.591c1.23-0.72,2.87-1.05,4.352-1.739c0.13-0.061,0.09-0.41,0.148-0.431
				c2.16-0.84,4.211-0.91,6.82-1.16c5.58-0.55,11.352,0.051,16.55,1.16c0,0.141,0,0.29,0,0.431c3.13,0.26,5.262,1.51,7.841,2.33
				c-0.619,6.21-0.671,12.97-1.601,18.869c-4.79-2.43-10.13-5.84-17.42-4.79c-2.54,0.12-4.97,0.351-6.1,1.881
				c-1.74,0.149-1.82,1.949-2.762,2.909c-0.58,4.24-0.43,8.631,3.052,9.58c-0.11,0.44,0.5,0.17,0.29,0.721
				c3.51,1.43,6.64,3.239,10.75,4.069c0,0.141,0,0.29,0,0.431c3.92,0.729,6.858,2.43,9.868,4.069c0.142,0.62,0.472,1.07,1.302,1.011
				c3.38,3.35,6.1,7.359,7.12,13.069C822.385,164.175,822.015,165.425,822.574,165.735z"/>
			<path fill="#FFFFFF" d="M759.285,108.545c0,28.841,0,57.67,0,86.511c-6.591,0-13.171,0-19.75,0c0-28.69,0-57.381,0-86.08
				c-0.011-0.2-0.021-0.41,0.149-0.431C746.215,108.545,752.745,108.545,759.285,108.545z"/>
			<path fill="#FFFFFF" d="M728.945,165.735c0.432,7.55-1.278,12.95-3.489,17.86c-0.439-0.11-0.17,0.5-0.721,0.29
				c0,1.21-1.109,1.3-1.16,2.46c-2.408,2.43-4.479,5.21-7.988,6.54c-0.11,0.22-0.461,0.21-0.432,0.579
				c-1.17,0.141-2.09,0.521-2.619,1.301c-5.601,1.87-13.949,2.18-21.04,1.449c-2.561-0.26-4.681-1.239-6.83-1.449
				c0-0.141,0-0.29,0-0.431c-3.359-0.8-5.96-2.359-8.42-4.069c0.659-6.021,1-12.36,1.601-18.431c3.04,1.601,5.72,3.561,9.439,4.5
				c0.761,1.261,3.141,0.91,4.21,1.88c9.149,2.16,19.92,0.301,18.579-10.739c-0.64-1.44-1.64-2.521-2.619-3.63
				c-0.83,0.06-1.159-0.391-1.301-1.011c-3.09-1.37-5.729-3.18-9.29-4.069c0-0.141,0-0.29,0-0.431
				c-9.989-2.739-17.52-7.939-19.75-18.439c-0.09-0.681,0.25-1.79-0.29-2.03c-0.119-5.64-0.05-11.09,2.04-14.52
				c0.96-3.83,3.46-6.12,5.37-9c0.19,0,0.38,0,0.58,0c0.94-1.381,2.48-2.16,3.63-3.341c1.79-0.239,2.562-1.489,4.352-1.739
				c0.17-0.021,0.119-0.261,0.148-0.431c2.11-0.63,4.32-0.92,6.82-1.16c5.67-0.56,11.79,0.131,16.689,1.16c0,0.141,0,0.29,0,0.431
				c3.04,0.31,5.181,1.5,7.699,2.33c-0.608,6.21-0.67,12.97-1.6,18.869c-2.33-1.109-4.23-2.649-7.11-3.199c0-0.141,0-0.29,0-0.431
				c-3.029-0.62-6.71-2.09-10.31-1.16c-4.53,0.011-7.33,1.761-8.851,4.79c-0.631,4.28-0.381,8.57,3.039,9.58
				c-0.1,0.44,0.5,0.17,0.29,0.721c3.54,1.399,6.642,3.229,10.75,4.069c0,0.141,0,0.29,0,0.431c3.94,0.699,6.87,2.409,9.87,4.069
				c0.2,0.57,0.59,0.95,1.301,1.011c0.75,1,1.619,1.869,2.619,2.619c0.062,0.71,0.44,1.101,1.011,1.301
				c0.359,0.899,0.721,1.8,1.449,2.33c0.671,2.279,1.54,4.359,2.04,6.819C728.765,164.175,728.385,165.425,728.945,165.735z"/>
			<path fill="#FFFFFF" d="M704.995,262.555c-0.011,0.68-0.489,0.869-0.301,1.75c-0.688,0.609-0.77,1.84-1.88,2.029
				c-0.17,0.021-0.12,0.261-0.149,0.431c-3.761,1.229-7.13-1.53-6.38-5.221c0.279-1.439,1.409-1.96,2.46-2.91
				C702.065,257.826,704.605,259.555,704.995,262.555z"/>
			<path fill="#FFFFFF" d="M690.615,254.865c1.41,8.16-2.54,13.271-9.869,13.65c-0.319-0.091-0.199,0.271-0.431,0.29
				c-8.7,0.229-13.74-3.2-13.359-12.051c2.569,0,5.131,0,7.699,0c-0.568,4.271,2.11,6.271,5.66,5.511
				c0.74-0.61,1.38-1.32,2.181-1.88c1.67-5.591-3.939-6.171-7.841-7.12c0-0.141,0-0.29,0-0.431c-4.318-0.76-6.76-3.409-7.409-7.84
				c-0.221-2.399,0.659-3.7,0.869-5.66c1.98-2.67,4.4-4.899,8.86-5.08c1.771-0.569,3.39-0.25,5.22,0c0.312,0.04,1.13,0.16,1.46,0.29
				c0.312,0.12,0.301,0.561,0.58,0.721c0.66,0.39,1.42,0.311,1.88,0.58c0.051,0.029,0.19,0.529,0.29,0.58
				c0.562,0.26,1.17,0.369,1.46,1.31c0.08,0.28,0.53,0.36,0.58,0.44c0.2,0.34,0.062,0.619,0.29,1.01c0.13,0.24,0.9,1.25,1.011,1.891
				c0.21,1.21-0.149,2.67,0,4.061c-2.511,0-5.029,0-7.551,0c0.551-3.67-1.859-5.341-4.93-4.5c-0.931,1.01-2.17,1.71-2.03,3.779
				c1.44,2.279,4.37,3.069,7.551,3.63c-0.16,0.591,0.891-0.021,0.579,0.721C687.105,249.475,689.275,251.765,690.615,254.865z"/>
			<path fill="#FFFFFF" d="M666.666,178.215c0,5.62,0,11.229,0,16.841c-15.432,0-30.87,0-46.302,0c0-28.69,0-57.381,0-86.08
				c-0.02-0.2-0.028-0.41,0.142-0.431c15.39,0,30.779,0,46.159,0c0,5.71,0,11.42,0,17.13c-9.189,0-18.38,0-27.579,0
				c-0.341,5.61-0.051,11.851-0.142,17.71c8.61,0,17.221,0,25.841,0c0,5.421,0,10.83,0,16.25c-8.62,0-17.229,0-25.841,0
				c0,6.15,0,12.29,0,18.44C647.895,178.416,657.475,178.125,666.666,178.215z"/>
			<path fill="#FFFFFF" d="M663.324,267.635c-2.608,0-5.22,0-7.829,0c-0.181-7.631,0.261-15.671,0-22.5
				c-0.649-1.24-1.399-2.37-2.329-3.33c-0.961-0.301-2.16-0.36-3.48-0.29c-0.75,0.409-1.31,1-2.03,1.449
				c-0.67,7.649-0.108,16.54-0.29,24.671c-2.568,0-5.13,0-7.698,0c0.1-10.74-0.19-21.87,0.148-32.37c2.42,0,4.84,0,7.26,0
				c0.642-0.2,0,0.87,0.432,0.87c1.38-0.41,3.1-0.48,4.5-0.87c1.02,0.449,2.148,0.13,3.188,0.29c1.74,0.279,3.17,1.189,4.5,1.75
				c0.562,0.79,1.24,1.47,2.04,2.029c-0.16,0.74,0.33,0.819,0.722,1.011c0.81,5.01,1.238,11.899,0.58,17.42
				C663.666,260.525,663.175,264.405,663.324,267.635z"/>
			<path fill="#FFFFFF" d="M634.445,243.835c-0.318,5.189,0.432,10.33,0,14.95c-0.52,5.5-3.858,8.26-8.42,9.729
				c-8.68,1.22-14.858-2.181-15.83-9.591c0.32-4.789-0.42-10.449,0-14.949c0.23-2.42,1.312-4.141,2.04-5.801
				c0.9-0.47,1.562-1.289,2.46-1.89c0.5-0.33,1.551-0.761,2.04-1.45c3.34-0.739,6.95-1.34,10.16-0.29
				c0.87,0.28,1.38,0.609,2.18,1.011c1.37,0.699,2.49,2,3.62,2.909C633.295,240.235,634.155,241.746,634.445,243.835z
				 M626.745,259.215c0-5.22,0-10.449,0-15.67c-0.721-1.26-1.819-2.149-3.051-2.909c-0.87,0-1.739,0-2.608,0
				c-1.392,0.6-2.32,1.649-3.051,2.909c0,5.221,0,10.45,0,15.67c0.729,1.36,1.84,2.33,3.199,3.051c0.771,0,1.551,0,2.32,0
				C624.745,261.375,626.025,260.576,626.745,259.215z"/>
			<path fill="#FFFFFF" d="M626.745,243.545c0,5.221,0,10.45,0,15.67c-0.721,1.36-2,2.16-3.189,3.051c-0.771,0-1.55,0-2.32,0
				c-1.358-0.721-2.47-1.689-3.199-3.051c0-5.22,0-10.449,0-15.67c0.729-1.26,1.659-2.311,3.051-2.909c0.869,0,1.738,0,2.608,0
				C624.925,241.395,626.025,242.286,626.745,243.545z"/>
			<path fill="#FFFFFF" d="M615.865,195.055c-7.409,0-14.81,0-22.21,0c-4.26-10.979-8.979-21.5-13.5-32.221c-2.04,0-4.068,0-6.1,0
				c-0.34,10.45-0.05,21.529-0.15,32.221c-6.29,0-12.58,0-18.869,0c0.101-28.79-0.189-57.96,0.149-86.511c5.59,0,11.2,0,16.689,0
				c5.75,0,11.439-0.479,16.699,0c0.61,0.051,1.421,0.16,2.03,0.29c0.351,0.07,0.51,0.34,0.87,0.431
				c0.88,0.22,1.92,0.279,2.899,0.58c0.771,0.239,1.511,0.79,2.319,1.159c1.101,0.511,2.021,0.811,2.761,1.311
				c0.369,0.25,0.479,0.32,0.869,0.58c0.5,0.34,0.5,0.399,1.021,0.87c1.84,1.659,4.319,3.13,5.229,5.659
				c0.841,0.28,0.711,1.521,1.591,1.75c0.58,1.591,1.199,3.15,2.029,4.5c0.4,2.45,1.07,4.641,1.46,7.11
				c0.5,7.42-0.96,12.89-3.199,17.561c-0.58,0.17-0.841,0.75-1.159,1.159c-0.91,1.2-1.73,2.471-2.9,3.631
				c-1.46,1.46-3.229,2.539-4.939,3.779C604.645,171.245,610.545,182.865,615.865,195.055z M589.155,143.965
				c5.7-4.27,4.46-15.399-3.63-16.409c-3.43-0.42-7.37,0.319-11.47,0c-0.34,5.619-0.05,11.859-0.15,17.71c3.92,0,7.841,0,11.762,0
				C586.655,144.655,588.035,144.435,589.155,143.965z"/>
			<path fill="#FFFFFF" d="M605.995,224.815c0.079,5.32-7.591,5.58-8.71,1.311c-0.359-2.439,0.609-3.55,1.449-4.79
				c0.61,0.08,0.92-0.141,1.011-0.58C603.155,219.885,605.555,221.826,605.995,224.815z"/>
			<path fill="#FFFFFF" d="M605.405,235.265c0,10.79,0,21.58,0,32.37c-2.608,0-5.22,0-7.83,0c0-10.641,0-21.29,0-31.931
				c-0.02-0.21-0.028-0.41,0.142-0.439C600.285,235.265,602.845,235.265,605.405,235.265z"/>
			<path fill="#FFFFFF" d="M593.655,261.255c0,2.221,0,4.45,0,6.67c-4.729,0.24-8.358-0.64-10.46-3.039
				c-2.648-5.58-0.979-15.471-1.449-23.23c-0.529-0.34-1.689-0.05-2.46-0.14c0-2.091,0-4.17,0-6.25c0.819,0,1.641,0,2.46,0
				c0-2.9,0-5.801,0-8.71c2.569,0,5.131,0,7.699,0c0,2.909,0,5.81,0,8.71c1.4,0,2.801,0,4.21,0c0,2.08,0,4.159,0,6.25
				c-1.358,0-2.71,0-4.068,0c-0.15,5.859-0.42,13.1,0.148,18.72C590.675,260.935,591.795,261.465,593.655,261.255z"/>
			<path fill="#FFFFFF" d="M585.525,127.555c8.09,1.01,9.33,12.14,3.63,16.409c-1.119,0.471-2.5,0.69-3.488,1.301
				c-3.921,0-7.842,0-11.762,0c0.102-5.851-0.188-12.091,0.15-17.71C578.155,127.875,582.095,127.135,585.525,127.555z"/>
			<path fill="#FFFFFF" d="M575.655,235.265c0,10.79,0,21.58,0,32.37c-2.568,0-5.13,0-7.699,0c0-0.721,0-1.45,0-2.171
				c-0.301,0.229-0.739,0.32-1.159,0.58c-0.29,0.181-0.58,0.569-0.87,0.721c-0.3,0.159-0.82,0.119-1.16,0.29
				c-0.46,0.25-0.92,0.76-1.89,0.869c-1.892,0.221-3.49-0.779-5.512-0.869c-0.618-0.5-1.1-1.12-2.04-1.301
				c-0.47-0.739-1.078-1.34-1.88-1.739c-0.64-0.87-0.909-2.091-1.75-2.761c-0.18-4.76-1.358-11.46-0.58-16.699
				c0.32-2.07,1.602-3.681,2.04-5.221c1.972-2.05,5.25-3.949,9.142-4.069c1.92-0.061,3.858,0.59,5.52,1.159
				c0.32-0.1,0.05-0.811,0.142-1.159C570.525,235.265,573.085,235.265,575.655,235.265z M567.955,257.475
				c0.689-3.649-0.511-9.36,0-13.21c-0.689-1.051-1.431-2.051-2.46-2.75c-0.971,0.09-2.33-0.2-3.051,0.14
				c-0.93,0.28-1.21,1.221-2.04,1.601c-1.17,4-0.31,10.03-0.58,14.95c0.381,1.311,1.28,2.109,2.04,3.05
				c1.852,0.721,3.62-0.279,4.5-1.159C566.916,259.545,567.765,258.525,567.955,257.475z"/>
			<path fill="#FFFFFF" d="M567.955,244.265c-0.511,3.85,0.689,9.561,0,13.21c-0.189,1.05-1.039,2.069-1.591,2.62
				c-0.88,0.88-2.648,1.88-4.5,1.159c-0.76-0.939-1.659-1.739-2.04-3.05c0.271-4.92-0.59-10.95,0.58-14.95
				c0.83-0.38,1.11-1.319,2.04-1.601c0.722-0.34,2.08-0.05,3.051-0.14C566.525,242.215,567.265,243.215,567.955,244.265z"/>
			<path fill="#FFFFFF" d="M546.905,243.835c0,3.63,0,7.261,0,10.88c-5.51,0-11.028,0-16.54,0c0,2.08-0.21,4.37,0.58,5.671
				c0.552,0.27,1.062,0.579,1.302,1.159c0.539,0.091,1.13,0.13,1.158,0.721c3.61,0.22,5.48-1.301,5.67-4.5c2.61,0,5.222,0,7.83,0
				c0,2.75-0.97,4.55-1.738,6.54c-1.062,0.58-1.881,1.399-2.472,2.46c-3.26,1.569-7.21,2.58-11.46,1.75c-1-0.2-2.84-0.86-3.779-1.46
				c-0.141-0.091-0.141-0.641-0.289-0.721c-0.17-0.101-0.57,0.12-0.722,0c-2.22-1.721-3.239-4.601-3.778-7.41
				c0.318-4.859-0.42-10.409,0-14.949c0.33-3.45,2.039-5.721,3.778-7.551c0.19,0,0.38,0,0.58,0c0.42-0.829,1.852-0.659,2.17-1.59
				c2.182-0.38,4.48-1.09,6.83-0.87c2.69,0.25,4.761,1.399,6.67,2.171c0.73,0.88,1.392,1.819,2.472,2.329
				C545.765,240.235,546.625,241.746,546.905,243.835z M539.074,248.335c0-1.55,0-3.101,0-4.649c-0.81-1.391-1.608-2.729-3.198-3.05
				c-4.271-0.851-6.312,2.89-5.512,7.699C533.265,248.335,536.166,248.335,539.074,248.335z"/>
			<path fill="#FFFFFF" d="M544.735,178.215c0,5.62,0,11.229,0,16.841c-15.39,0-30.779,0-46.16,0c0-28.69,0-57.381,0-86.08
				c-0.02-0.2-0.028-0.41,0.142-0.431c15.34,0,30.68,0,46.02,0c0,5.71,0,11.42,0,17.13c-9.148,0-18.29,0-27.438,0
				c-0.341,5.61-0.051,11.851-0.142,17.71c8.61,0,17.222,0,25.841,0c0,5.421,0,10.83,0,16.25c-8.569,0-17.131,0-25.699,0
				c-0.341,5.91-0.051,12.44-0.142,18.58C526.345,178.215,535.535,178.215,544.735,178.215z"/>
			<path fill="#FFFFFF" d="M542.405,93.155c0.5,6.3-2.55,9.06-6.818,10.6c-0.432,0-0.87,0-1.301,0
				c-0.359,0.12-0.539,0.431-1.171,0.29c-0.318,0.08-0.198-0.279-0.43-0.29c-4.87-0.31-7.07-3.29-8.28-7.26
				c0.091-1.05-0.108-2.07,0-2.899c0.49-3.5,2.591-5.141,4.79-6.83c0.25,0,0.49,0,0.73,0c0.319-0.641,1.12-0.811,2.18-0.721
				c1.46-0.83,3.4,0.23,4.931,0.29c0,0.141,0,0.29,0,0.431c1.67,0.319,2.25,1.72,3.631,2.33
				C541.275,90.415,541.955,91.675,542.405,93.155z"/>
			<path fill="#FFFFFF" d="M539.074,243.685c0,1.55,0,3.101,0,4.649c-2.908,0-5.81,0-8.71,0c-0.8-4.811,1.24-8.55,5.511-7.699
				C537.465,240.956,538.265,242.295,539.074,243.685z"/>
			<path fill="#FFFFFF" d="M521.074,93.155c0.432,4.16-1.06,6.4-2.619,8.56c-0.189,0-0.381,0-0.58,0
				c-3.279,3.681-11.67,2.4-13.209-2.029c-2.36-1.83-1.69-7.21-0.432-9.721c1.521-1,2.28-2.76,4.352-3.199
				c1.568-1.49,4.909-0.94,7.108-0.431c0.24,0.87,1.591,0.641,1.75,1.59C519.745,88.575,520.185,91.085,521.074,93.155z"/>
			<path fill="#FFFFFF" d="M519.615,234.545c0,2.609,0,5.221,0,7.841c-4.64-0.5-7.229,0.439-8.42,3.329c0,7.311,0,14.62,0,21.921
				c-2.608,0-5.22,0-7.83,0c0-10.79,0-21.58,0-32.37c2.61,0,5.222,0,7.83,0c0,1.159,0,2.33,0,3.489
				C513.285,236.625,514.875,234.005,519.615,234.545z"/>
			<path fill="#FFFFFF" d="M498.574,256.465c0.301,7.899-3.75,11.45-10.46,12.341c-7.81,0.119-12.198-3.19-13.21-9.881
				c0.5-6.1-0.8-12.09,0.29-16.829c0.29-1.24,1.011-3.131,1.75-3.921c0.2-0.229,0.87-0.47,1.301-0.869
				c0.601-0.57,0.75-0.841,1.449-1.311c0.42-0.28,0.94-0.42,1.602-0.729c0.318-0.141,0.608-0.63,0.87-0.721
				c0.358-0.13,0.979-0.229,1.31-0.29c1.46-0.279,3.021-0.43,4.5-0.29c6.561,0.61,10.9,4.36,10.6,12.341c-2.47,0-4.938,0-7.408,0
				c0-0.591,0-1.17,0-1.75c0.229-0.511-0.49-0.091-0.432-0.431c-0.12-1.96-1.398-2.771-2.76-3.489c-3.16-0.4-4.28,1.239-5.229,3.05
				c0.641,4.59-0.851,11.01,0,15.239c0.271,1.301,1.489,1.99,2.04,2.91c0.591-0.12,0.899,0.061,1.011,0.431c0.729,0,1.449,0,2.18,0
				c1.83-1.17,3.36-2.641,3.19-5.801C493.635,256.465,496.105,256.465,498.574,256.465z"/>
			<path fill="#FFFFFF" d="M488.115,108.545c0,28.841,0,57.67,0,86.511c-6.619,0-13.25,0-19.88,0c0-28.69,0-57.381,0-86.08
				c-0.01-0.2-0.029-0.41,0.141-0.431C474.955,108.545,481.535,108.545,488.115,108.545z"/>
			<path fill="#FFFFFF" d="M459.665,136.995c-0.061,7.771,0.96,17.12,0.29,25.4c-0.101,1.3-0.109,3.04-0.29,4.359
				c-0.061,0.46-0.341,0.801-0.431,1.301c-0.229,1.21-0.22,3.029-0.58,4.5c-1.3,5.25-3.818,9.479-6.83,13.21
				c-1.699,2.109-4.41,4.439-7.108,5.949c-2.11,1.189-4.561,1.881-7.4,2.62c-1.56,0.399-3.08,0.87-4.649,1.011
				c-5.36,0.489-11.211,0-17.131,0c-5.59,0-11.359,0-17.13,0c0-28.79,0-57.58,0-86.37c-0.01-0.2-0.02-0.41,0.15-0.431
				c8.21,0,17.149,0,25.689,0c3.74,0,8.011-0.47,10.46,0.721c7.2,0.779,12.011,3.96,16.25,7.699c1.229,2.011,2.75,3.73,4.21,5.511
				c0.521,1.52,1.189,2.87,2.029,4.069c0.16,1.75,1.04,3.32,1.46,5.08C459.065,133.355,458.945,135.335,459.665,136.995z
				 M439.204,160.655c0.45-5.29,0.44-11.48,0-16.98c-0.14-1.649,0.141-3.239,0-4.789c-0.26-2.83-0.779-5.141-1.75-7.12
				c-1.079-1.24-2.3-2.341-3.34-3.63c-3.529-2.07-9.649-1.57-15.239-1.591c-0.171,0.021-0.15,0.23-0.141,0.431
				c0,16.89,0,33.779,0,50.66c4.891-0.181,10.73,0.579,14.37-0.87c1.36-1.29,3.07-2.25,4.06-3.92c0.261-0.99,1.11-1.95,1.45-3.04
				C439.435,167.255,438.914,164.035,439.204,160.655z"/>
			<path fill="#FFFFFF" d="M458.074,222.635c0,2.079,0,4.17,0,6.25c-1.84,0-3.68,0-5.52,0c-0.47,0.35-0.72,0.92-1.311,1.159
				c0,1.689,0,3.38,0,5.08c1.699,0.34,4.021,0.05,5.949,0.141c0,2.08,0,4.159,0,6.25c-1.93,0-3.87,0-5.8,0
				c-0.34,8.409-0.05,17.46-0.149,26.12c-2.609,0-5.22,0-7.84,0c0-8.66,0-17.32,0-25.98c-0.529-0.34-1.689-0.05-2.46-0.14
				c0-2.091,0-4.17,0-6.25c0.82,0,1.641,0,2.46,0c-0.31-4.551,0.261-7.66,1.75-10.011c0.15-0.25,2.721-1.819,3.34-2.04
				c0.83-0.289,2.32-0.489,3.19-0.579C453.565,222.456,455.725,222.775,458.074,222.635z"/>
			<path fill="#FFFFFF" d="M439.204,143.675c0.44,5.5,0.45,11.69,0,16.98c-0.29,3.38,0.23,6.6-0.59,9.15
				c-0.34,1.09-1.189,2.05-1.45,3.04c-0.989,1.67-2.699,2.63-4.06,3.92c-3.64,1.449-9.48,0.689-14.37,0.869
				c0-16.88,0-33.77,0-50.659c-0.01-0.2-0.03-0.41,0.141-0.431c5.59,0.021,11.71-0.479,15.239,1.59
				c1.04,1.29,2.261,2.391,3.34,3.631c0.971,1.979,1.49,4.29,1.75,7.119C439.345,140.435,439.065,142.025,439.204,143.675z"/>
			<path fill="#FFFFFF" d="M438.034,243.685c-0.33,5.09,0.46,10.529,0,15.239c-0.35,3.681-2.5,5.74-4.21,7.841
				c-1.51,0.521-2.89,1.17-4.35,1.75c-0.72,0.1-1.9-0.261-2.18,0.29c-3.721,0.18-6.29-0.78-8.851-1.75
				c-1.359-1.591-3.229-2.671-3.78-5.08c-0.02-0.17-0.26-0.12-0.43-0.141c0.04-0.479,0.021-0.899-0.29-1.021
				c-0.069-0.609,0.2-1.561-0.29-1.739c0.311-5.631-0.43-10.811,0-15.24c0.07-0.811,0.24-2.141,0.58-2.91
				c0.021-0.05,0.391,0.061,0.43,0c0.46-0.569,0.671-2.119,1.16-2.75c0.36-0.47,1.63-1.43,2.33-1.89
				c0.351-0.229,1.51-0.61,2.03-1.021c1.64-1.28,6.32-1.57,9.14-1.011c0.471,0.091,1.53,0.351,2.04,0.58
				c0.061,0.021-0.06,0.391,0,0.431c0.49,0.359,1.9,0.489,2.46,0.869c0.271,0.19,2.15,2.061,2.33,2.33
				c0.16,0.25,0.21,1.11,0.58,1.74c0.3,0.5,0.83,0.93,1.01,1.739C437.875,242.496,437.454,243.225,438.034,243.685z
				 M430.204,259.215c0-5.22,0-10.449,0-15.67c-1.029-1.779-2.359-3.26-5.52-2.909c-0.09,0.01-0.17,0.029-0.15,0.149
				c-1.51,0.42-2.3,1.569-3.04,2.76c0,5.221,0,10.45,0,15.67c0.7,1.431,1.931,2.33,3.33,3.051
				C427.905,262.536,429.105,260.925,430.204,259.215z"/>
			<path fill="#FFFFFF" d="M430.204,243.545c0,5.221,0,10.45,0,15.67c-1.1,1.71-2.3,3.32-5.38,3.051
				c-1.399-0.721-2.63-1.62-3.33-3.051c0-5.22,0-10.449,0-15.67c0.74-1.189,1.53-2.34,3.04-2.76c-0.02-0.12,0.061-0.141,0.15-0.149
				C427.845,240.286,429.175,241.765,430.204,243.545z"/>
			<path fill="#FFFFFF" d="M395.075,243.835c0,3.63,0,7.261,0,10.88c-5.471,0-10.94,0-16.41,0c0.069,2.341-0.29,4.221,0.58,5.521
				c0.6,0.891,1.699,1.21,2.33,2.03c3.6,0.22,5.47-1.301,5.659-4.5c2.61,0,5.221,0,7.841,0c-0.011,2.75-0.971,4.55-1.75,6.54
				c-0.841,0.8-1.98,1.3-2.461,2.46c-2.649,1.18-5.71,2.359-9.149,2.04c-6.08-0.57-10.17-4.141-10.89-9.881
				c0.3-5.439-0.41-10.561,0-14.949c0.539-5.721,4.93-9.42,10.6-10.011c0.68-0.069,1.95-0.079,2.76,0
				c4.16,0.391,6.65,2.181,9.141,4.5C393.925,240.235,394.785,241.746,395.075,243.835z M387.235,248.335c0-1.55,0-3.101,0-4.649
				c-0.97-3.979-7.71-4.09-8.569,0.149c-0.261,1.311,0.189,2.681,0,4.5C381.525,248.335,384.375,248.335,387.235,248.335z"/>
			<path fill="#FFFFFF" d="M391.155,195.345c-6.199,0-12.39,0-18.579,0c-1.71-5.41-2.891-11.33-4.79-16.54
				c-6.95,0.26-14.341,0.08-21.051,0.58c-0.029,0.739-0.069,1.479-0.869,1.449c-0.511,3.021-1.261,6.189-2.04,9.141
				c-0.101,0.41-0.44,0.699-0.58,1.16c-0.271,0.92-0.16,2.71-1.011,2.909c0,0.431,0,0.87,0,1.301c-6.29,0-12.58,0-18.869,0
				c0.069-1.62,0.75-2.631,0.869-4.21c0.141,0,0.29,0,0.431,0c1.08-5.69,2.979-10.57,4.069-16.25c0.141,0,0.29,0,0.431,0
				c1.04-5.69,2.93-10.53,4.069-16.12c0.141,0,0.29,0,0.431,0c2.39-11.4,6.18-21.4,8.569-32.801c0.141,0,0.29,0,0.431,0
				c1.359-5.859,3.01-11.42,4.5-17.13c6.68,0,13.359,0,20.04,0c3.779,13.24,7.569,26.49,11.029,40.061
				c0.03,0.21,0.431,0.05,0.431,0.29C382.485,164.915,387.255,179.706,391.155,195.345z M350.945,162.255c4.301,0,8.61,0,12.921,0
				c-0.4-0.38-0.4-1.369,0-1.75c-2.171-8.229-3.971-16.84-6.25-24.96c-1.811,8.2-4.28,15.74-5.95,24.091
				c-0.23,0.02-0.5-0.021-0.431,0.289C351.425,160.995,350.745,161.185,350.945,162.255z"/>
			<path fill="#FFFFFF" d="M387.235,243.685c0,1.55,0,3.101,0,4.649c-2.859,0-5.71,0-8.569,0c0.189-1.819-0.261-3.189,0-4.5
				C379.525,239.595,386.265,239.706,387.235,243.685z"/>
			<path fill="#FFFFFF" d="M367.785,234.545c0,2.609,0,5.221,0,7.841c-2.311,0.229-4.341-0.44-5.811,0.289
				c-1.33,0.65-1.68,2.141-2.609,3.04c0,7.311,0,14.62,0,21.92c-2.57,0-5.131,0-7.7,0c0-10.789,0-21.579,0-32.369
				c2.569,0,5.13,0,7.7,0c0,1.159,0,2.33,0,3.489C361.545,236.725,362.985,233.956,367.785,234.545z"/>
			<path fill="#FFFFFF" d="M363.865,162.255c-4.31,0-8.619,0-12.92,0c-0.199-1.069,0.48-1.26,0.29-2.33
				c-0.069-0.31,0.2-0.27,0.431-0.289c1.67-8.351,4.14-15.891,5.949-24.091c2.28,8.12,4.08,16.73,6.25,24.96
				C363.465,160.885,363.465,161.875,363.865,162.255z"/>
			<path fill="#FFFFFF" d="M347.165,258.925c0.229,0.521-0.49,0.091-0.431,0.439c0,3.73-2.199,5.25-3.779,7.4
				c-1.62,0.42-2.83,1.229-4.351,1.75c-0.72,0.1-1.899-0.261-2.18,0.29c-7.98,0.189-12.43-3.16-13.64-9.729
				c0.329-4.87-0.45-10.66,0-15.24c0.18-1.899,1.069-3.319,1.449-4.79c0.45,0.16,0.351-0.229,0.58-0.29
				c1.021-1.649,2.45-2.869,4.5-3.489c0.17-0.021,0.12-0.261,0.141-0.431c2.85-0.71,5.949-1.181,9-0.58
				c1.75,0.341,2.979,1.71,4.5,1.881c1.72,1.909,3.62,3.64,3.779,7.119c-0.229,0.511,0.49,0.08,0.431,0.431
				C347.165,248.765,347.165,253.845,347.165,258.925z M339.325,259.215c0-5.22,0-10.449,0-15.67c-0.66-1.33-1.82-2.149-3.04-2.909
				c-0.971,0.109-1.74-0.15-2.471,0c-5.76,1.18-2.21,12.64-3.2,18.579c1.11,1.761,2.341,3.381,5.521,3.051
				C337.315,261.365,338.685,260.655,339.325,259.215z"/>
			<path fill="#FFFFFF" d="M339.325,243.545c0,5.221,0,10.45,0,15.67c-0.641,1.439-2.011,2.149-3.19,3.051
				c-3.18,0.33-4.41-1.29-5.52-3.051c0.989-5.939-2.561-17.399,3.199-18.579c0.73-0.15,1.5,0.109,2.471,0
				C337.505,241.395,338.665,242.215,339.325,243.545z"/>
			<path fill="#FFFFFF" d="M320.745,178.215c0,5.71,0,11.421,0,17.131c-14.9,0-29.801,0-44.71,0c0-28.69,0-57.381,0-86.08
				c-0.011-0.2-0.021-0.41,0.149-0.431c6.141,0,12.29,0,18.43,0c0,23.08,0,46.16,0,69.24
				C303.035,178.416,312.085,178.125,320.745,178.215z"/>
			<path fill="#FFFFFF" d="M319.445,261.255c0,2.221,0,4.45,0,6.67c-4.729,0.229-8.329-0.67-10.449-3.039
				c-2.66-5.58-0.99-15.471-1.46-23.23c-0.53-0.34-1.69-0.05-2.46-0.14c0-2.091,0-4.17,0-6.25c0.819,0,1.64,0,2.46,0
				c0-2.9,0-5.801,0-8.71c2.569,0,5.13,0,7.699,0c0,2.909,0,5.81,0,8.71c1.4,0,2.801,0,4.21,0c0,2.08,0,4.159,0,6.25
				c-1.359,0-2.71,0-4.069,0c-0.34,5.75-0.05,12.14-0.141,18.14C316.025,260.795,317.255,261.505,319.445,261.255z"/>
			<path fill="#FFFFFF" d="M302.165,254.715c0.37,2.181,0.37,4.649,0,6.83c-0.141,0-0.29,0-0.431,0
				c-0.76,4.37-5.17,6.78-10.02,7.261c-0.85,0.079-1.86,0.079-2.76,0c-6.75-0.66-11.08-4.471-10.59-12.051c2.609,0,5.22,0,7.84,0
				c-0.11,2.609,0.14,4.881,2.46,5.08c0,0.141,0,0.29,0,0.431c1.21,0.34,1.8,0.21,3.05,0c0.72-0.681,1.54-1.261,2.32-1.881
				c1.68-5.59-3.98-6.119-7.83-7.119c0-0.141,0-0.29,0-0.431c-2.92-0.431-4.761-1.931-6.25-3.779
				c-0.04-0.631-0.11-1.229-0.721-1.301c-0.26-0.859-0.14-2.101-0.58-2.76c0.061-0.641-0.09-1.33,0-2.03
				c0.101-0.869,0.53-2.619,1.011-2.619c0-0.33,0-0.671,0-1.011c1.22-0.779,1.14-2.42,2.76-2.91c0.26-0.069,0.34-0.521,0.44-0.579
				c0.5-0.29,1.239-0.23,1.739-0.58c0.061-0.04,0.13-0.431,0.141-0.431c1.01-0.42,2.43-0.489,3.779-0.58
				c1.631-0.51,3.57-0.29,5.221,0c0.529,0.091,1.64,0.311,2.04,0.58c0.069,0.04-0.07,0.38,0,0.431c0.52,0.42,1.33,0.279,1.87,0.58
				c-0.061,0,0.149,0.51,0.3,0.579c0.68,0.32,1.2,0.461,1.45,1.311c0.09,0.28,0.52,0.33,0.59,0.439c1.16,1.961,1.22,3.74,1.16,6.961
				c-2.471,0-4.94,0-7.41,0c1.08-4.99-4.761-5.86-6.67-3.04c-0.771,1.869,0.149,3.279,1.159,4.21c2.12,0.479,3.65,1.569,6.091,1.739
				c-0.15,0.591,0.89-0.021,0.579,0.721c1.15-0.17,1.181,0.76,2.33,0.58c1.33,0.85,2.48,1.88,3.631,2.909
				C301.175,253.206,301.325,254.295,302.165,254.715z"/>
			<path fill="#FFFFFF" d="M234.235,262.265c-1.34,1.05-2.55,2.229-4.069,3.199c-1.011,0.641-1.74,1.671-2.761,2.46
				c-0.76,0.601-1.689,0.99-2.46,1.601c-3.05,2.399-5.739,5.301-9.29,7.11c-1.26,1.939-3.81,2.579-5.079,4.5
				c-1.19,0.42-1.86,1.34-2.761,2.039c-1.199,0.351-1.859,1.24-2.609,2.03c-3.641,2.659-7.29,5.29-10.75,8.13
				c-0.41,0.069-1.221-0.26-1.011,0.431c-22.38,0-46.34,0-69.239,0c-3.301,0-6.9,0.43-9.88,0c-0.71-0.101-0.82-0.38-1.45-0.431
				c-0.84-0.069-1.59,0.08-1.88,0.29c-0.33-2.859,0.84-6.319,1.159-9.729c0.2-2.16-0.01-4.399,0.58-6.38
				c7.32-0.771,16.391,0.09,24.091-0.439c0.47-4.25,0.5-8.57,0.88-12.921c0.43-5.05-0.16-10.609,0.29-16.109
				c0.659-8.279,0.14-16.239,0.87-24.681c0.399-4.739,0-9.97,0-15.239c0-5,0-10.181,0-15.239c0-10.37,0.5-20.73-0.29-30.051
				c-0.431-4.96,0.35-9.92,0-14.37c-0.551-6.789-0.32-13.699-0.87-20.18c-0.261-2.95,0.229-5.939,0-8.859
				c-0.57-7.04-0.71-13.73-1.311-21.04c-7.779-0.91-16.8,0.229-24.529-0.15c-0.891-5.99-1.58-12.93-2.181-18.73
				c0.16-0.029,0.101-0.279,0.29-0.289c11.58,0.029,26.48,0,39.34,0c12.021,0,24.061,0,35.851,0c-0.53,6.189-0.931,12.52-1.3,18.88
				c-8.131,0.09-16.65-0.2-24.54,0.14c-0.53,38.97-0.29,79.209-0.29,118.89c0,6.5-0.29,13.399-0.29,19.301
				c0,6.63,0.29,13.56,0.29,20.47c0,6.771-0.011,13.771,0,20.03c7.529,0.68,16.31,0.1,24.39,0.289c1.24-0.699,2.05-1.859,3.19-2.75
				c1.079-0.851,2.42-1.47,3.489-2.329c0.46-0.36,0.601-0.921,1.011-1.301c0.39-0.359,1.04-0.55,1.46-0.869
				c2.489-1.931,4.939-4.23,7.54-6.25c3.43-2.641,6.779-5.4,10.17-8.12c-1.28-11.48-1.271-23.54-2.33-35.86
				c-0.2-2.38-0.07-5.05-0.29-7.109c-0.57-5.489,0.689-11.29,0-16.55c-0.061-0.511-0.33-0.811-0.431-1.45
				c-0.22-1.359-0.05-3,0.431-4.069c-0.021-6.08,0.029-13.59,0-18.721c6.399-0.67,14.029-0.109,20.91-0.29
				C227.075,203.435,229.315,235.045,234.235,262.265z"/>
			<path fill="#FFFFFF" d="M199.535,126.545c-0.091,3.811-0.53,8.601-0.87,12.341c-0.15,1.72,0.33,3.68-0.431,4.789
				c-0.3,4.101,0.061,8.04-0.29,12.19c-0.239,2.76-0.04,5.76-0.29,8.71c-0.819,9.58-0.579,17.7-0.579,28.74
				c0,6.399-0.15,12.99,0.29,17.859c0.289,3.229-0.271,6.66,0,10.011c0.159,2.09,0.399,4.05,0.579,6.101
				c0.46,5.399-0.369,10.149,0.29,15.239c0.061,0.45,0.351,0.851,0.431,1.311c0.46,2.511-0.05,5.311,0.29,7.84
				c-1.9,1.7-3.99,3.181-5.95,4.79c-1.07,0.87-1.851,2.131-3.05,3.051c-0.301,0.22-0.71,0.189-1.011,0.43
				c-0.909,0.729-2.27,1.729-3.199,2.61c-0.12,0.119-0.141,0.34-0.29,0.439c-2.36,1.58-4.82,3.51-6.96,5.521
				c-5.71,0-11.42,0-17.13,0c-0.601-4.841-0.24-12.42-0.15-16.551c2.14-0.67,5.51-0.109,8.13-0.29c0.6-0.609,1.51-1.26,2.47-2.039
				c0.801-0.641,1.511-1.48,2.32-2.171c0.39-0.34,1.08-1.05,1.6-1.449c0.82-0.65,1.44-0.521,1.74-1.17
				c0.65-1.431,0.03-4.79-0.149-6.82c-0.561-6.529,0.229-16-0.29-21.771c-0.61-6.84,0-14.979,0-23.08c0-7.72-0.61-15.819,0-22.939
				c0.64-7.41-0.301-16.561,0.58-23.521c0.329-2.55-0.21-7.05,0-9.869c0.069-0.87,0.409-1.82,0.29-2.32
				c-0.16-0.71-1.82-1.73-2.75-2.61c-1.49-1.399-2.561-2.38-3.921-3.49c-0.779-0.619-1.449-1.52-2.029-1.739
				c-2.351-0.87-6.13,0.3-7.84,0c-0.521-5.45,0.319-12.061,0-18.29c-0.021-0.2-0.03-0.41,0.14-0.431c5.86,0,11.71,0,17.57,0
				c1.229,1.73,2.899,2.801,4.5,4.21c1.71,1.5,3.399,3.171,5.22,4.79c0.21,0.181,0.36,0.431,0.58,0.58
				c0.21,0.141,0.689,0.13,0.87,0.29c0.34,0.29,0.52,0.94,0.87,1.3c0.93,0.95,2.3,1.591,3.34,2.62c0.55,0.53,0.88,1.23,1.449,1.74
				C197.095,124.555,198.325,125.515,199.535,126.545z"/>
			<path fill="#FFFFFF" d="M153.375,53.385c8.95,0,17.91,0,26.859,0c-0.47,6.39-0.739,13-1.159,19.449
				c-7.07-0.34-17.45,0.48-25.12-0.29c-0.74-1.739-0.021-3.699-0.29-5.659c-0.04-0.341-0.36-0.7-0.431-1.021
				c-0.84-3.7,0.62-8.04,0-12.05C153.225,53.615,153.205,53.405,153.375,53.385z"/>
			<path fill="#FFFFFF" d="M141.035,72.835c-8.61,0-17.221,0-25.83,0c-0.69-6.359-1.471-13.699-2.33-19.16
				c7.609-0.449,18.31-0.26,27.29-0.289C140.215,60.105,140.925,66.175,141.035,72.835z"/>
			<path fill="#FFFFFF" d="M135.665,251.965c0.06,1.979,0.31,4.421,0,6.82c-0.051,0.439-0.34,0.71-0.431,1.159
				c-0.569,2.7,0.41,5.92-0.29,8.57c-18.39-0.101-36.52-0.46-55.159-0.301c0.64-3.29,1.369-6.579,2.029-10.159
				c0.37-2.021,0.57-4.24,1.301-6.381c5.46-0.979,11.6,0.58,17.13-0.149c0.819-1.01,0.479-2.279,0.58-3.479
				c0.39-4.311,1.05-9.521,1.46-14.08c0.239-2.76,0.33-6,0.58-8.71c0.59-6.58,0.05-14.47,0.869-20.909c0.471-3.69,0-8.5,0-13.061
				c0-8.641,0.11-14.641-0.58-22.36c-0.17-1.88,0.16-3.8,0-5.659c-1.029-11.98-1.51-24.99-2.909-36.431
				c-5.75-0.1-11.9,0.19-17.42-0.149c-1.04-6.21-2.37-12.141-3.33-18.431c18.449,0.21,36.96-0.29,54.87-0.149
				c0.76,5.67,0.939,11.93,0.869,18.439c-4.21,0.091-8.81-0.199-12.779,0.141c-0.311,5.62,0.34,12.46,0.87,18.439
				c0.55,6.05-0.03,10.84,0.579,17.71c0.261,2.88,0.04,5.86,0.301,8.71c0.58,6.49,0,14.28,0,21.341c0,3.479,0,7.1,0,10.59
				c0,4.319,0,8.609-0.301,11.91c-0.159,1.88,0.16,3.8,0,5.659c-0.81,9.471-0.46,18.75-1.159,27.431
				c-0.07,0.939-0.591,1.939-0.141,2.91C126.285,252.246,131.985,251.095,135.665,251.965z"/>
		</g>
	</g>
</g>
</svg>
