<?xml version="1.0" encoding="utf-8"?>
<!-- Generator: Adobe Illustrator 15.0.2, SVG Export Plug-In . SVG Version: 6.00 Build 0)  -->
<!DOCTYPE svg PUBLIC "-//W3C//DTD SVG 1.1//EN" "http://www.w3.org/Graphics/SVG/1.1/DTD/svg11.dtd">
<svg version="1.1" id="Layer_1" xmlns="http://www.w3.org/2000/svg" xmlns:xlink="http://www.w3.org/1999/xlink" x="0px" y="0px"
	 width="296.139px" height="348.301px" viewBox="0 0 296.139 348.301" enable-background="new 0 0 296.139 348.301"
	 xml:space="preserve">
<g id="Fondo_xA0_Image_1_">
</g>
<g>
	<g id="XMLID_1_">
		<g>
			<path fill="#FFFFFF" d="M161.22,251.97c2.14-0.67,5.51-0.11,8.13-0.29c0.6-0.61,1.51-1.261,2.47-2.04
				c0.8-0.641,1.51-1.48,2.32-2.17c0.39-0.34,1.08-1.051,1.6-1.45c0.82-0.65,1.44-0.521,1.74-1.17c0.649-1.431,0.03-4.79-0.15-6.82
				c-0.56-6.53,0.23-16-0.29-21.77c-0.609-6.841,0-14.98,0-23.08c0-7.721-0.609-15.82,0-22.94c0.641-7.41-0.3-16.56,0.58-23.52
				c0.33-2.55-0.21-7.05,0-9.87c0.07-0.87,0.41-1.82,0.29-2.32c-0.16-0.71-1.82-1.73-2.75-2.61c-1.49-1.4-2.56-2.38-3.92-3.49
				c-0.78-0.62-1.45-1.52-2.03-1.74c-2.35-0.87-6.13,0.3-7.84,0c-0.13-1.35-0.17-2.78-0.17-4.25c0-4.46,0.41-9.36,0.17-14.04
				c-0.02-0.2-0.03-0.41,0.141-0.43c5.859,0,11.71,0,17.569,0c1.23,1.73,2.9,2.8,4.5,4.21c1.71,1.5,3.4,3.17,5.221,4.79
				c0.21,0.18,0.359,0.43,0.579,0.58c0.21,0.14,0.69,0.13,0.87,0.29c0.34,0.29,0.521,0.94,0.87,1.3c0.931,0.95,2.3,1.59,3.34,2.62
				c0.551,0.53,0.88,1.23,1.44,1.74c1.2,1.06,2.43,2.02,3.64,3.04c-0.09,3.82-0.529,8.61-0.87,12.35
				c-0.149,1.72,0.33,3.68-0.43,4.78c-0.3,4.1,0.061,8.04-0.29,12.19c-0.24,2.76-0.05,5.76-0.3,8.71
				c-0.811,9.58-0.57,17.7-0.57,28.75c0,6.39-0.149,12.99,0.29,17.85c0.28,3.23-0.27,6.66,0,10.021c0.16,2.08,0.4,4.04,0.58,6.1
				c0.45,5.4-0.37,10.15,0.29,15.24c0.061,0.45,0.35,0.851,0.43,1.311c0.46,2.51-0.05,5.31,0.29,7.84
				c-1.899,1.7-3.989,3.18-5.949,4.79c-1.07,0.87-1.86,2.13-3.051,3.05c-0.31,0.22-0.71,0.189-1.01,0.43
				c-0.91,0.73-2.27,1.73-3.2,2.61c-0.12,0.12-0.14,0.34-0.29,0.439c-2.359,1.58-4.819,3.511-6.96,5.521c-5.71,0-11.42,0-17.13,0
				c-0.26-2.09-0.34-4.69-0.34-7.311C161.03,257.77,161.169,254.32,161.22,251.97z"/>
			<path fill="#FFFFFF" d="M159.039,276.93c7.53,0.68,16.311,0.1,24.391,0.29c1.239-0.7,2.05-1.86,3.189-2.75
				c1.07-0.86,2.42-1.471,3.49-2.33c0.46-0.36,0.6-0.92,1.01-1.3c0.391-0.36,1.04-0.551,1.46-0.87c2.49-1.931,4.94-4.23,7.54-6.25
				c3.431-2.641,6.78-5.4,10.17-8.12c-1.279-11.48-1.27-23.54-2.33-35.86c-0.199-2.38-0.069-5.05-0.29-7.109
				c-0.569-5.49,0.69-11.29,0-16.551c-0.06-0.51-0.33-0.81-0.43-1.449c-0.22-1.36-0.05-3,0.43-4.07c-0.02-6.08,0.021-13.59,0-18.72
				c6.4-0.67,14.021-0.11,20.91-0.29c-1.5,31.89,0.74,63.49,5.66,90.72c-1.34,1.05-2.55,2.22-4.07,3.189
				c-1.02,0.65-1.739,1.681-2.77,2.46c-0.75,0.61-1.68,0.99-2.45,1.61c-3.05,2.39-5.74,5.3-9.3,7.11c-1.25,1.93-3.8,2.569-5.07,4.5
				c-1.189,0.42-1.859,1.34-2.76,2.029c-1.2,0.36-1.86,1.24-2.61,2.03c-3.64,2.66-7.29,5.29-10.75,8.13
				c-0.409,0.07-1.22-0.26-1.01,0.44c-22.38,0-46.34,0-69.24,0c-3.31,0-6.9,0.42-9.88,0c-0.71-0.11-0.82-0.38-1.45-0.44
				c-0.84-0.06-1.59,0.08-1.88,0.29c-0.33-2.85,0.84-6.31,1.15-9.72c0.21-2.17,0-4.4,0.59-6.38c7.32-0.78,16.39,0.09,24.09-0.44
				c0.47-4.25,0.5-8.569,0.88-12.93c0.22-2.57,0.17-5.27,0.14-8.03c-0.04-2.66-0.07-5.37,0.15-8.069
				c0.65-8.28,0.14-16.24,0.87-24.69c0.4-4.729,0-9.96,0-15.229c0-5,0-10.19,0-15.24c0-10.37,0.5-20.73-0.29-30.05
				c-0.43-4.96,0.35-9.92,0-14.37c-0.55-6.79-0.32-13.7-0.87-20.18c-0.26-2.95,0.23-5.94,0-8.86c-0.16-1.93-0.28-3.84-0.39-5.74
				c-0.29-5.02-0.48-10-0.92-15.3c-7.78-0.91-16.8,0.23-24.53-0.15c-0.89-5.99-1.58-12.93-2.18-18.73c0.16-0.03,0.1-0.28,0.29-0.29
				c11.58,0.03,26.48,0,39.34,0c12.02,0,24.06,0,35.85,0c-0.529,6.19-0.93,12.52-1.3,18.88c-8.13,0.09-16.649-0.2-24.54,0.14
				c-0.109,8.01-0.189,16.08-0.24,24.19c-0.199,31.3-0.05,63.17-0.05,94.701c0,6.5-0.29,13.399-0.29,19.3
				c0,6.63,0.29,13.56,0.29,20.47c0,1.43,0,2.87,0,4.31C159.039,266.591,159.03,271.99,159.039,276.93z"/>
			<path fill="#FFFFFF" d="M153.379,53.39c8.95,0,17.91,0,26.86,0c-0.47,6.38-0.74,13-1.16,19.44c-7.069-0.34-17.45,0.49-25.12-0.29
				c-0.739-1.73-0.02-3.69-0.29-5.65c-0.04-0.35-0.359-0.7-0.43-1.03c-0.84-3.7,0.62-8.04,0-12.04
				C153.23,53.61,153.209,53.4,153.379,53.39z"/>
			<path fill="#FFFFFF" d="M141.04,72.83c-8.61,0-17.22,0-25.83,0c-0.69-6.35-1.47-13.69-2.33-19.16
				c7.61-0.44,18.31-0.26,27.29-0.28C140.219,60.11,140.929,66.17,141.04,72.83z"/>
			<path fill="#FFFFFF" d="M135.24,126.54c-4.21,0.1-8.81-0.19-12.78,0.15c-0.31,5.62,0.34,12.46,0.87,18.43
				c0.55,6.05-0.03,10.84,0.57,17.71c0.27,2.88,0.05,5.86,0.31,8.71c0.58,6.49,0,14.28,0,21.35c0,3.47,0,7.09,0,10.59
				c0,4.31,0,8.6-0.31,11.91c-0.15,1.88,0.17,3.8,0,5.649c-0.8,9.48-0.45,18.75-1.15,27.44c-0.07,0.93-0.6,1.93-0.14,2.91
				c3.68,0.859,9.38-0.29,13.06,0.569c0.04,1.25,0.15,2.7,0.15,4.19c0,0.87-0.04,1.75-0.15,2.63c-0.06,0.44-0.34,0.71-0.43,1.16
				c-0.57,2.7,0.41,5.92-0.29,8.57c-18.39-0.101-36.52-0.46-55.16-0.301c0.64-3.29,1.36-6.579,2.03-10.159
				c0.37-2.021,0.57-4.24,1.3-6.381c5.46-0.979,11.6,0.58,17.13-0.149c0.82-1.01,0.48-2.28,0.58-3.48
				c0.39-4.31,1.05-9.52,1.46-14.08c0.24-2.76,0.33-6,0.58-8.71c0.59-6.58,0.05-14.47,0.87-20.899c0.47-3.7,0-8.5,0-13.07
				c0-8.64,0.11-14.64-0.59-22.36c-0.16-1.88,0.17-3.8,0-5.65c-1.02-11.99-1.5-25-2.9-36.44c-5.75-0.1-11.9,0.2-17.42-0.14
				c-1.04-6.21-2.37-12.15-3.33-18.44c18.45,0.21,36.96-0.29,54.87-0.14c0.25,1.85,0.43,3.76,0.57,5.72
				C135.219,117.89,135.29,122.16,135.24,126.54z"/>
		</g>
		<g>
		</g>
	</g>
</g>
</svg>
