<?xml version="1.0" encoding="utf-8"?>
<!-- Generator: Adobe Illustrator 15.0.2, SVG Export Plug-In . SVG Version: 6.00 Build 0)  -->
<!DOCTYPE svg PUBLIC "-//W3C//DTD SVG 1.1//EN" "http://www.w3.org/Graphics/SVG/1.1/DTD/svg11.dtd">
<svg version="1.1" id="Layer_1" xmlns="http://www.w3.org/2000/svg" xmlns:xlink="http://www.w3.org/1999/xlink" x="0px" y="0px"
	 width="48px" height="48px" viewBox="0 0 48 48" enable-background="new 0 0 48 48" xml:space="preserve">
<g id="ozcOy0_1_">
	<g>
		<g id="XMLID_3_">
			<g>
				<path d="M28.301,6.517c0.667,0.656,1.411,1.168,2.26,1.573c-0.86,0.831-1.926,1.46-3.023,2.058
					c-1.235-0.514-2.139-1.359-3.067-2.179c0.847-0.79,2.032-1.5,3.025-1.978C27.715,5.886,28.125,6.34,28.301,6.517z"/>
				<path fill="#FFFFFF" d="M32.701,36.013c-2.388-0.014-4.336,0.034-6.579,0.158c0.134-3.294,0.013-6.415-0.24-9.441
					C28.47,29.513,30.769,32.575,32.701,36.013z"/>
				<path d="M32.701,36.013c-1.933-3.438-4.231-6.5-6.819-9.283c0.253,3.026,0.374,6.147,0.24,9.441
					C28.365,36.047,30.313,35.999,32.701,36.013z M35.363,43.635c-3.305,0.057-6.789,0.321-9.885,0.646
					c-3.253,0.339-6.279,1.017-9.24,1.614c-3.023,0.61-5.939,1.309-8.917,1.895c-0.013-0.218,0.218-0.378,0.365-0.522
					c0.871-0.875,1.794-1.599,2.824-2.423c0.398-0.319,0.83-0.741,1.21-0.888c0.373-0.143,0.879-0.155,1.331-0.242
					c2.936-0.557,6.004-1.254,9.038-1.774c0.24-0.701,0.257-1.624,0.323-2.5c-1.199,0-2.578,0.09-3.996,0.12
					c-0.846,0.018-1.559-0.013-2.017,0.443c-0.194,0.02,0.027-0.374-0.162-0.363c-1.368,0.051-2.781,0.04-4.236,0.04
					c-0.478,0-1.018-0.093-1.412,0c-0.314,0.077-0.667,0.496-0.926,0.688c-0.358,0.261-0.642,0.436-0.969,0.604
					c-2.274-0.094-4.197-0.887-5.971-1.614c0.931-1.134,2.159-1.874,3.43-2.784c0.413-0.295,0.838-0.721,1.25-0.807
					c0.655-0.135,1.46,0.037,2.138,0.082c1.95,0.126,3.987,0.432,6.174,0.44c-1.046-4.93-2.75-9.369-5.043-13.111
					c-0.756-1.232-1.573-2.478-2.745-3.307c0.754-0.725,1.848-1.438,2.906-2.058c0.285-0.168,0.842-0.572,1.089-0.565
					c0.363,0.008,0.936,0.656,1.17,0.928c0.359,0.417,0.549,0.832,0.886,1.169c-0.172-1.262-0.412-2.412-0.605-3.751
					c-0.057-0.402-0.205-0.965-0.119-1.292c0.063-0.253,0.597-0.55,0.846-0.725c0.74-0.522,1.171-0.764,1.935-1.21
					c0.269-0.157,0.75-0.531,1.05-0.526c0.32,0.007,0.865,0.527,1.128,0.768c1,0.909,1.829,1.901,2.824,2.743
					c-0.374-1.17-0.35-2.429-0.968-3.349c-0.192-0.288-0.679-0.6-1.049-0.888c-2.504-1.951-5.229-3.951-7.222-6.335
					c1.114-0.756,2.311-1.428,3.631-1.976c2.121,2.398,4.794,4.243,7.222,6.334c0.527-0.134,0.62,0.388,0.889,0.685
					c0.379,0.422,0.96,0.807,1.453,1.21c1.399,1.151,3.003,2.432,4.601,3.31c-0.815,1.002-2.006,1.627-3.109,2.338
					c-0.56-0.246-1.012-0.601-1.532-0.886c0.185,0.993,0.278,2.052,0.403,3.146c0.039,0.348,0.025,0.768,0.12,1.05
					c0.08,0.235,0.547,0.612,0.807,0.888c3.003,3.183,5.887,6.353,8.31,10.086c0.858,1.318,1.932,2.76,2.02,4.641
					c-0.402,0.683-1.021,1.184-1.572,1.734c-0.503,0.503-1.146,1.28-1.816,1.573c-0.52,0.227-1.247,0.203-1.858,0.201
					c-1.366-0.003-2.693,0.002-4.679,0.082c-0.321,0.012-0.73-0.048-0.968,0.04c-0.233,0.085-0.417,0.442-0.646,0.685
					c-0.634,0.681-1.384,1.22-2.018,1.857c5.962-1.259,11.779-1.351,18.521-1.372c-2.188-3.371-4.366-6.808-6.738-10.088
					c-2.361-3.26-4.807-6.499-6.9-9.965c0.893-0.977,1.977-1.762,3.188-2.421c1.125,2.086,2.581,3.985,3.995,5.892
					c1.41,1.897,2.723,3.863,4.114,5.768c1.391,1.902,2.604,3.988,3.915,5.973c1.284,1.946,2.681,3.928,4.882,5.003
					c-0.329,0.623-0.742,1.138-1.251,1.695c-0.387,0.422-0.975,1.225-1.494,1.412c-0.578,0.207-1.834,0.115-2.581,0.079
					C40.399,43.647,37.839,43.591,35.363,43.635z M20.315,36.289c0.926,0.021,1.35-0.05,2.219-0.039
					c-0.039-3.872-0.18-8.034-0.403-11.82c-0.036-0.597,0.051-1.306-0.082-1.735c-0.1-0.327-0.635-0.757-0.968-1.089
					c-1.105-1.107-1.959-2.1-3.026-3.147c-0.001-0.043-0.051-0.032-0.041,0.039C18.874,24.337,19.344,30.564,20.315,36.289z"/>
				<path d="M26.083,4.619c-0.735,0.476-1.507,0.967-2.42,1.412c-0.198,0.098-0.726,0.376-0.886,0.363
					c-0.269-0.02-1.088-0.918-1.292-1.088c-1.25-1.049-2.794-2.15-3.589-3.471c0.933-0.747,1.993-1.368,3.146-1.896
					c0.028,0,0.055,0,0.082,0C22.401,1.874,24.573,2.916,26.083,4.619z"/>
				<path fill="#FFFFFF" d="M22.534,36.25c-0.869-0.011-1.292,0.06-2.219,0.039c-0.971-5.725-1.442-11.952-2.301-17.791
					c-0.011-0.071,0.039-0.082,0.041-0.039c1.066,1.047,1.92,2.04,3.026,3.147c0.333,0.332,0.869,0.763,0.968,1.089
					c0.133,0.429,0.046,1.138,0.082,1.735C22.354,28.216,22.495,32.378,22.534,36.25z"/>
			</g>
			<g>
			</g>
		</g>
	</g>
</g>
</svg>
